<svg xmlns="http://www.w3.org/2000/svg" xmlns:xlink="http://www.w3.org/1999/xlink" viewBox="0 0 1920 1079"><defs><style>.cls-1{fill:#0090e3;}.cls-2{fill:gray;}.cls-3{fill:#666;}.cls-4{isolation:isolate;}.cls-5{fill:#4d4d4d;}.cls-6{fill:url(#Naamloos_verloop_10);}.cls-7{fill:#fff;}.cls-8{fill:#b3b3b3;}.cls-9{fill:#ec6b56;}.cls-10{fill:#fcc052;}.cls-11{fill:#82d353;}.cls-12{fill:#e6e6e6;}.cls-13{fill:#3fa9f5;}.cls-14{fill:#999;}</style><linearGradient id="Naamloos_verloop_10" x1="1415.69" y1="739.46" x2="1415.69" y2="675.45" gradientUnits="userSpaceOnUse"><stop offset="0" stop-color="#666"/><stop offset="1" stop-color="#333"/></linearGradient></defs><title>bg-masterhead</title><g id="Laag_1" data-name="Laag 1"><rect id="background" class="cls-1" width="1920" height="1079"/></g><g id="PC"><polygon class="cls-2" points="1482.42 772.13 1348.95 772.13 1331.49 821.77 1499.89 821.77 1482.42 772.13"/><polygon class="cls-3" points="1484.92 781.27 1346.46 781.27 1352.7 675.45 1478.68 675.45 1484.92 781.27"/><path class="cls-3" d="M1331.49,821.77h168.39a0,0,0,0,1,0,0V825a2,2,0,0,1-2,2H1333.49a2,2,0,0,1-2-2v-3.23A0,0,0,0,1,1331.49,821.77Z"/><g class="cls-4"><polygon class="cls-5" points="1352.7 675.45 1478.68 675.45 1481.74 739.46 1349.64 739.46 1352.7 675.45"/><polygon class="cls-6" points="1352.7 675.45 1478.68 675.45 1481.74 739.46 1349.64 739.46 1352.7 675.45"/></g><rect x="1046.63" y="265.69" width="736.72" height="449.05" rx="15" ry="15"/><rect class="cls-7" x="1078.9" y="300.77" width="673.57" height="378.89"/><rect class="cls-8" x="1082.1" y="304.98" width="666.56" height="371.87" rx="2" ry="2"/><rect class="cls-7" x="1089.41" y="338.66" width="652.56" height="332.58"/><ellipse class="cls-9" cx="1727.96" cy="320.42" rx="5.6" ry="5.61"/><ellipse class="cls-10" cx="1712.56" cy="320.42" rx="5.6" ry="5.61"/><ellipse class="cls-11" cx="1697.16" cy="320.42" rx="5.6" ry="5.61"/><rect class="cls-12" x="1145.42" y="310.59" width="534.93" height="19.65" rx="2" ry="2"/><rect class="cls-13" x="1089.41" y="368.13" width="652.56" height="136.12"/><g id="Responsive_design" data-name="Responsive design"><path class="cls-7" d="M1202.55,417.63h10.52c6.19,0,11.27,2.15,11.27,9.11,0,6.73-5.08,9.62-11.27,9.62h-3.92v10.53h-6.6Zm10,13.48c3.47,0,5.34-1.49,5.34-4.37s-1.87-3.86-5.34-3.86h-3.38v8.23Zm-.67,3.51,4.57-4.23,9.32,16.5h-7.39Z" transform="translate(0 -1)"/><path class="cls-7" d="M1230,417.63h18.3v5.55h-11.69v5.87h9.95v5.55h-9.95v6.75h12.14v5.54H1230Z" transform="translate(0 -1)"/><path class="cls-7" d="M1252.69,443.2l3.79-4.54a11.63,11.63,0,0,0,7.17,3.06c2.76,0,4.11-1.09,4.11-2.82s-1.66-2.44-4.21-3.49l-3.8-1.62c-3-1.23-5.89-3.73-5.89-8,0-4.85,4.32-8.72,10.4-8.72a13.46,13.46,0,0,1,9.39,3.84l-3.33,4.17a9.48,9.48,0,0,0-6.06-2.3c-2.28,0-3.73.95-3.73,2.63s1.91,2.44,4.46,3.46l3.72,1.51c3.57,1.45,5.8,3.83,5.8,8,0,4.86-4,9.07-11,9.07A16,16,0,0,1,1252.69,443.2Z" transform="translate(0 -1)"/><path class="cls-7" d="M1279.47,417.63h10c6.43,0,11.61,2.3,11.61,9.41,0,6.88-5.24,9.92-11.43,9.92h-3.61v9.93h-6.6Zm9.82,14.08c3.63,0,5.35-1.62,5.35-4.67s-2-4.16-5.53-4.16h-3v8.83Z" transform="translate(0 -1)"/><path class="cls-7" d="M1304.81,432.13c0-9.56,5.39-15,13.27-15s13.26,5.52,13.26,15-5.39,15.3-13.26,15.3S1304.81,441.7,1304.81,432.13Zm19.76,0c0-5.86-2.51-9.33-6.49-9.33s-6.5,3.47-6.5,9.33,2.51,9.59,6.5,9.59S1324.57,438,1324.57,432.13Z" transform="translate(0 -1)"/><path class="cls-7" d="M1336.86,417.63h6.76l7.62,14.55,2.89,6.43h.18c-.31-3.09-.84-7.19-.84-10.64V417.63h6.29v29.26H1353l-7.62-14.59-2.89-6.39h-.18c.31,3.23.85,7.15.85,10.6v10.38h-6.29Z" transform="translate(0 -1)"/><path class="cls-7" d="M1364.76,443.2l3.8-4.54a11.61,11.61,0,0,0,7.17,3.06c2.76,0,4.1-1.09,4.1-2.82s-1.66-2.44-4.21-3.49l-3.79-1.62c-3-1.23-5.9-3.73-5.9-8,0-4.85,4.33-8.72,10.41-8.72a13.46,13.46,0,0,1,9.39,3.84l-3.33,4.17a9.5,9.5,0,0,0-6.06-2.3c-2.28,0-3.73.95-3.73,2.63s1.91,2.44,4.46,3.46l3.72,1.51c3.57,1.45,5.79,3.83,5.79,8,0,4.86-4,9.07-11,9.07A16.07,16.07,0,0,1,1364.76,443.2Z" transform="translate(0 -1)"/><path class="cls-7" d="M1391.55,417.63h6.6v29.26h-6.6Z" transform="translate(0 -1)"/><path class="cls-7" d="M1401.27,417.63h7l3.52,13.64c.87,3.2,1.46,6.15,2.34,9.38h.18c.89-3.23,1.51-6.18,2.34-9.38l3.45-13.64h6.75L1418,446.89h-7.93Z" transform="translate(0 -1)"/><path class="cls-7" d="M1429.61,417.63h18.29v5.55h-11.69v5.87h10v5.55h-10v6.75h12.14v5.54h-18.74Z" transform="translate(0 -1)"/><path class="cls-7" d="M1463.12,417.63h8.26c8.92,0,14.66,4.45,14.66,14.5s-5.74,14.76-14.29,14.76h-8.63Zm7.86,23.94c5,0,8.3-2.44,8.3-9.44s-3.35-9.17-8.3-9.17h-1.26v18.61Z" transform="translate(0 -1)"/><path class="cls-7" d="M1491.56,417.63h18.29v5.55h-11.69v5.87h10v5.55h-10v6.75h12.14v5.54h-18.74Z" transform="translate(0 -1)"/><path class="cls-7" d="M1514.22,443.2l3.79-4.54a11.64,11.64,0,0,0,7.18,3.06c2.75,0,4.1-1.09,4.1-2.82s-1.66-2.44-4.21-3.49l-3.8-1.62c-3-1.23-5.89-3.73-5.89-8,0-4.85,4.32-8.72,10.4-8.72a13.49,13.49,0,0,1,9.4,3.84l-3.34,4.17a9.48,9.48,0,0,0-6.06-2.3c-2.27,0-3.72.95-3.72,2.63s1.91,2.44,4.46,3.46l3.72,1.51c3.56,1.45,5.79,3.83,5.79,8,0,4.86-4,9.07-11,9.07A16.07,16.07,0,0,1,1514.22,443.2Z" transform="translate(0 -1)"/><path class="cls-7" d="M1541,417.63h6.61v29.26H1541Z" transform="translate(0 -1)"/><path class="cls-7" d="M1553.12,432.43c0-9.71,6.44-15.34,14.23-15.34a12.65,12.65,0,0,1,9.22,3.8l-3.48,4.24a7.59,7.59,0,0,0-5.52-2.33c-4.49,0-7.68,3.54-7.68,9.41s2.71,9.51,8.21,9.51a5.28,5.28,0,0,0,3.09-.87V435.8h-4.83v-5.4h10.7v13.49a14.11,14.11,0,0,1-9.64,3.54C1559.38,447.43,1553.12,442.29,1553.12,432.43Z" transform="translate(0 -1)"/><path class="cls-7" d="M1583.08,417.63h6.77l7.62,14.55,2.89,6.43h.18c-.31-3.09-.85-7.19-.85-10.64V417.63H1606v29.26h-6.76l-7.62-14.59-2.89-6.39h-.18c.31,3.23.84,7.15.84,10.6v10.38h-6.29Z" transform="translate(0 -1)"/></g><rect class="cls-14" x="1317.66" y="519.68" width="196.05" height="65.95"/><rect class="cls-14" x="1530.52" y="519.68" width="196.05" height="65.95"/><rect class="cls-14" x="1545.92" y="594.06" width="165.24" height="8.42"/><rect class="cls-14" x="1568.32" y="608.09" width="120.43" height="8.42"/><rect class="cls-14" x="1541.72" y="622.12" width="173.64" height="8.42"/><rect class="cls-14" x="1551.52" y="636.15" width="154.04" height="8.42"/><rect class="cls-14" x="1534.72" y="650.19" width="187.64" height="8.42"/><rect class="cls-14" x="1333.07" y="594.06" width="165.24" height="8.42"/><rect class="cls-14" x="1355.47" y="608.09" width="120.43" height="8.42"/><rect class="cls-14" x="1328.87" y="622.12" width="173.64" height="8.42"/><rect class="cls-14" x="1338.67" y="636.15" width="154.04" height="8.42"/><rect class="cls-14" x="1321.87" y="650.19" width="187.64" height="8.42"/><rect class="cls-14" x="1104.81" y="519.68" width="196.05" height="65.95"/><rect class="cls-14" x="1120.22" y="594.06" width="165.24" height="8.42"/><rect class="cls-14" x="1142.62" y="608.09" width="120.43" height="8.42"/><rect class="cls-14" x="1116.02" y="622.12" width="173.64" height="8.42"/><rect class="cls-14" x="1125.82" y="636.15" width="154.04" height="8.42"/><rect class="cls-14" x="1109.02" y="650.19" width="187.64" height="8.42"/><path d="M1108.88,348.38h2.92l-1.9,9.42h4.3l-.47,2.44h-7.22Z" transform="translate(0 -1)"/><path d="M1115.15,355.42c0-4.41,3-7.26,6.13-7.26,2.74,0,4.6,1.83,4.6,5,0,4.41-3,7.26-6.13,7.26C1117,360.46,1115.15,358.64,1115.15,355.42Zm7.74-2c0-1.71-.66-2.7-1.75-2.7-1.35,0-3,1.82-3,4.56,0,1.72.65,2.7,1.75,2.7C1121.25,357.94,1122.89,356.12,1122.89,353.38Z" transform="translate(0 -1)"/><path d="M1127.37,355.42c0-4.23,2.89-7.26,6.57-7.26a3.7,3.7,0,0,1,3.43,1.94l-2,1.53a1.79,1.79,0,0,0-1.6-.95c-1.9,0-3.43,2-3.43,4.56,0,1.72.65,2.74,2.33,2.74a2,2,0,0,0,1-.29l.44-2h-1.75l.44-2.38h4.3l-1.13,5.88a6.5,6.5,0,0,1-3.83,1.24C1129.24,360.46,1127.37,358.64,1127.37,355.42Z" transform="translate(0 -1)"/><path d="M1138.69,355.42c0-4.41,3-7.26,6.12-7.26,2.74,0,4.6,1.83,4.6,5,0,4.41-3,7.26-6.13,7.26C1140.55,360.46,1138.69,358.64,1138.69,355.42Zm7.73-2c0-1.71-.66-2.7-1.75-2.7-1.35,0-3,1.82-3,4.56,0,1.72.65,2.7,1.75,2.7C1144.78,357.94,1146.42,356.12,1146.42,353.38Z" transform="translate(0 -1)"/><path d="M1555.87,349.72h2.24l-.7,3.42h2.72l.67-3.42h2.25l-1.83,9.12H1559l.76-3.73H1557l-.73,3.73H1554Z" transform="translate(0 -1)"/><path d="M1563.78,355.13c0-3.39,2.3-5.58,4.71-5.58,2.11,0,3.54,1.4,3.54,3.87,0,3.4-2.3,5.59-4.72,5.59C1565.21,359,1563.78,357.6,1563.78,355.13Zm6-1.57c0-1.31-.51-2.07-1.35-2.07-1,0-2.3,1.4-2.3,3.5,0,1.32.51,2.08,1.35,2.08C1568.46,357.07,1569.73,355.67,1569.73,353.56Z" transform="translate(0 -1)"/><path d="M1574.59,349.72h2.32l.59,3.93.21,1.54h.06l.8-1.54,2.13-3.93H1583l-1.83,9.12h-2.1l.65-3a31.53,31.53,0,0,1,.89-3.2h0l-1.13,2.13-1.94,3.31h-.84l-.59-3.31-.28-2.13h0a31.93,31.93,0,0,1-.35,3.2l-.62,3h-2Z" transform="translate(0 -1)"/><path d="M1585.17,349.72h5.55l-.37,1.88H1587l-.31,1.6h2.83l-.36,1.88h-2.84L1586,357h3.45l-.36,1.88h-5.7Z" transform="translate(0 -1)"/><path d="M1600.77,355.13c0-3.39,2.3-5.58,4.71-5.58,2.11,0,3.54,1.4,3.54,3.87,0,3.4-2.3,5.59-4.71,5.59C1602.2,359,1600.77,357.6,1600.77,355.13Zm6-1.57c0-1.31-.51-2.07-1.35-2.07-1,0-2.3,1.4-2.3,3.5,0,1.32.51,2.08,1.35,2.08C1605.46,357.07,1606.72,355.67,1606.72,353.56Z" transform="translate(0 -1)"/><path d="M1610.2,349.72h2.36l.17,4.26c0,1,0,1.93,0,2.89h.06L1614,354l1.85-4.26h2.47l-4.68,9.12H1611Z" transform="translate(0 -1)"/><path d="M1619.38,349.72h5.55l-.36,1.88h-3.34l-.31,1.6h2.83l-.36,1.88h-2.83l-.4,1.88h3.45l-.36,1.88h-5.7Z" transform="translate(0 -1)"/><path d="M1626.9,349.72h3c1.82,0,3.23.65,3.23,2.41,0,2.53-2.05,3.56-4.21,3.56h-1l-.62,3.15h-2.24Zm2.22,4.21c1.2,0,1.79-.59,1.79-1.46,0-.67-.48-1-1.32-1h-.81l-.48,2.44Zm-.42,1.23,1.59-1.46,2,5.14h-2.36Z" transform="translate(0 -1)"/><path d="M1636.89,355.13c0-3.39,2.3-5.58,4.71-5.58,2.11,0,3.54,1.4,3.54,3.87,0,3.4-2.3,5.59-4.71,5.59C1638.32,359,1636.89,357.6,1636.89,355.13Zm5.95-1.57c0-1.31-.51-2.07-1.35-2.07-1,0-2.3,1.4-2.3,3.5,0,1.32.51,2.08,1.35,2.08C1641.58,357.07,1642.84,355.67,1642.84,353.56Z" transform="translate(0 -1)"/><path d="M1647.7,349.72h2.16l1.26,4.32.45,2h0a31.48,31.48,0,0,1,.37-3.45l.59-2.92h2.13l-1.83,9.12h-2.16l-1.26-4.32-.42-2h0a29.68,29.68,0,0,1-.4,3.42l-.59,2.95h-2.13Z" transform="translate(0 -1)"/><path d="M1654.69,357.25l1.59-1.26a2.51,2.51,0,0,0,1.91,1.11c.65,0,1.07-.3,1.07-.8s-.41-.59-1-1l-.79-.49a2.55,2.55,0,0,1-1.34-2.33,3.16,3.16,0,0,1,3.35-2.95,3.75,3.75,0,0,1,2.83,1.42l-1.4,1.32a2.15,2.15,0,0,0-1.51-.8c-.65,0-1,.35-1,.78s.39.55,1.12,1l.84.52a2.22,2.22,0,0,1,1.24,2.18c0,1.66-1.38,3-3.57,3A4.05,4.05,0,0,1,1654.69,357.25Z" transform="translate(0 -1)"/><path d="M1672.34,355.13c0-3.25,2.21-5.58,4.91-5.58a2.78,2.78,0,0,1,2.49,1.49l-1.51,1.18a1.3,1.3,0,0,0-1.1-.73c-1.31,0-2.49,1.54-2.49,3.5,0,1.32.5,2.08,1.74,2.08a2.26,2.26,0,0,0,1.4-.65l.93,1.44a4.27,4.27,0,0,1-2.81,1.15C1673.77,359,1672.34,357.6,1672.34,355.13Z" transform="translate(0 -1)"/><path d="M1679,355.13c0-3.39,2.3-5.58,4.71-5.58,2.11,0,3.54,1.4,3.54,3.87,0,3.4-2.3,5.59-4.72,5.59C1680.42,359,1679,357.6,1679,355.13Zm6-1.57c0-1.31-.51-2.07-1.35-2.07-1,0-2.3,1.4-2.3,3.5,0,1.32.51,2.08,1.35,2.08C1683.67,357.07,1684.94,355.67,1684.94,353.56Z" transform="translate(0 -1)"/><path d="M1689.8,349.72H1692l1.26,4.32.45,2h0a31.48,31.48,0,0,1,.37-3.45l.59-2.92h2.13l-1.83,9.12h-2.16l-1.26-4.32-.42-2h-.05a29.68,29.68,0,0,1-.4,3.42l-.59,2.95H1688Z" transform="translate(0 -1)"/><path d="M1700.18,351.6h-2.3l.36-1.88h6.85l-.37,1.88h-2.3l-1.43,7.24h-2.24Z" transform="translate(0 -1)"/><path d="M1707.33,349.72h2.7l.87,9.12h-2.36l-.14-4.83c0-.87-.06-1.68-.06-2.61h0c-.37.9-.67,1.74-1.07,2.61l-2.19,4.83h-2.46Zm-1.9,5.36h4.23l-.39,1.68H1705Z" transform="translate(0 -1)"/><path d="M1711.83,355.13c0-3.25,2.21-5.58,4.91-5.58a2.78,2.78,0,0,1,2.49,1.49l-1.51,1.18a1.31,1.31,0,0,0-1.1-.73c-1.32,0-2.49,1.54-2.49,3.5,0,1.32.5,2.08,1.74,2.08a2.29,2.29,0,0,0,1.4-.65l.92,1.44a4.22,4.22,0,0,1-2.8,1.15C1713.26,359,1711.83,357.6,1711.83,355.13Z" transform="translate(0 -1)"/><path d="M1722.24,351.6h-2.3l.36-1.88h6.85l-.37,1.88h-2.3l-1.43,7.24h-2.24Z" transform="translate(0 -1)"/></g><g id="Tablet"><rect x="893.5" y="421.96" width="303.78" height="405.04" rx="15" ry="15"/><rect class="cls-7" x="908.18" y="437.61" width="274.42" height="374.2" rx="8" ry="8"/><rect class="cls-13" x="908.18" y="460.13" width="274.42" height="57.62"/><g id="Responsive_design-2" data-name="Responsive design"><path class="cls-7" d="M946.66,481.7h5.13c3,0,5.49,1.05,5.49,4.46s-2.47,4.7-5.49,4.7h-1.91V496h-3.22Zm4.87,6.59c1.69,0,2.6-.73,2.6-2.13s-.91-1.89-2.6-1.89h-1.65v4ZM951.2,490l2.22-2.07L958,496h-3.6Z" transform="translate(0 -1)"/><path class="cls-7" d="M960.05,481.7H969v2.71h-5.7v2.88h4.85V490h-4.85v3.3h5.92V496h-9.14Z" transform="translate(0 -1)"/><path class="cls-7" d="M971.1,494.21l1.84-2.22a5.68,5.68,0,0,0,3.5,1.49c1.34,0,2-.53,2-1.38s-.81-1.19-2.05-1.7l-1.85-.8a4.17,4.17,0,0,1-2.88-3.9c0-2.37,2.11-4.27,5.07-4.27a6.54,6.54,0,0,1,4.58,1.88l-1.62,2a4.65,4.65,0,0,0-3-1.12c-1.11,0-1.81.46-1.81,1.28s.93,1.2,2.17,1.7l1.82.73a4,4,0,0,1,2.82,3.9c0,2.38-2,4.44-5.36,4.44A7.81,7.81,0,0,1,971.1,494.21Z" transform="translate(0 -1)"/><path class="cls-7" d="M984.15,481.7H989c3.14,0,5.66,1.12,5.66,4.6s-2.55,4.85-5.57,4.85h-1.76V496h-3.21Zm4.78,6.89c1.77,0,2.61-.8,2.61-2.29s-.95-2-2.7-2h-1.48v4.32Z" transform="translate(0 -1)"/><path class="cls-7" d="M996.5,488.79c0-4.67,2.62-7.36,6.46-7.36s6.46,2.7,6.46,7.36-2.62,7.49-6.46,7.49S996.5,493.47,996.5,488.79Zm9.63,0c0-2.87-1.23-4.56-3.17-4.56s-3.17,1.69-3.17,4.56,1.23,4.69,3.17,4.69S1006.13,491.66,1006.13,488.79Z" transform="translate(0 -1)"/><path class="cls-7" d="M1012.11,481.7h3.3l3.71,7.12,1.41,3.14h.09c-.16-1.51-.41-3.52-.41-5.21V481.7h3.06V496H1020l-3.71-7.14-1.41-3.12h-.08c.15,1.58.41,3.49.41,5.18V496h-3.07Z" transform="translate(0 -1)"/><path class="cls-7" d="M1025.71,494.21l1.85-2.22a5.66,5.66,0,0,0,3.49,1.49c1.35,0,2-.53,2-1.38s-.81-1.19-2.06-1.7l-1.85-.8a4.17,4.17,0,0,1-2.87-3.9c0-2.37,2.11-4.27,5.07-4.27a6.56,6.56,0,0,1,4.58,1.88l-1.63,2a4.6,4.6,0,0,0-3-1.12c-1.11,0-1.82.46-1.82,1.28s.94,1.2,2.18,1.7l1.81.73a4,4,0,0,1,2.82,3.9c0,2.38-2,4.44-5.36,4.44A7.83,7.83,0,0,1,1025.71,494.21Z" transform="translate(0 -1)"/><path class="cls-7" d="M1038.76,481.7H1042V496h-3.22Z" transform="translate(0 -1)"/><path class="cls-7" d="M1043.5,481.7h3.41l1.71,6.67c.43,1.56.71,3,1.14,4.59h.09c.43-1.58.74-3,1.14-4.59l1.68-6.67H1056L1051.67,496h-3.87Z" transform="translate(0 -1)"/><path class="cls-7" d="M1057.31,481.7h8.92v2.71h-5.7v2.88h4.85V490h-4.85v3.3h5.91V496h-9.13Z" transform="translate(0 -1)"/><path class="cls-7" d="M1073.64,481.7h4c4.35,0,7.15,2.17,7.15,7.09s-2.8,7.22-7,7.22h-4.2Zm3.83,11.71c2.41,0,4-1.19,4-4.62s-1.63-4.49-4-4.49h-.61v9.11Z" transform="translate(0 -1)"/><path class="cls-7" d="M1087.5,481.7h8.92v2.71h-5.7v2.88h4.85V490h-4.85v3.3h5.91V496h-9.13Z" transform="translate(0 -1)"/><path class="cls-7" d="M1098.54,494.21l1.85-2.22a5.68,5.68,0,0,0,3.5,1.49c1.34,0,2-.53,2-1.38s-.81-1.19-2.06-1.7l-1.84-.8a4.17,4.17,0,0,1-2.88-3.9c0-2.37,2.11-4.27,5.07-4.27a6.56,6.56,0,0,1,4.58,1.88l-1.62,2a4.65,4.65,0,0,0-3-1.12c-1.11,0-1.81.46-1.81,1.28s.93,1.2,2.17,1.7l1.81.73a4,4,0,0,1,2.83,3.9c0,2.38-2,4.44-5.37,4.44A7.85,7.85,0,0,1,1098.54,494.21Z" transform="translate(0 -1)"/><path class="cls-7" d="M1111.59,481.7h3.22V496h-3.22Z" transform="translate(0 -1)"/><path class="cls-7" d="M1117.5,488.94c0-4.75,3.14-7.51,6.93-7.51a6.18,6.18,0,0,1,4.5,1.86l-1.7,2.08a3.67,3.67,0,0,0-2.69-1.14c-2.19,0-3.74,1.73-3.74,4.6s1.32,4.65,4,4.65a2.62,2.62,0,0,0,1.51-.42v-2.48H1124v-2.64h5.21v6.6a6.82,6.82,0,0,1-4.69,1.74C1120.55,496.28,1117.5,493.76,1117.5,488.94Z" transform="translate(0 -1)"/><path class="cls-7" d="M1132.1,481.7h3.3l3.71,7.12,1.41,3.14h.09c-.16-1.51-.41-3.52-.41-5.21V481.7h3.06V496H1140l-3.71-7.14-1.41-3.12h-.08c.15,1.58.41,3.49.41,5.18V496h-3.07Z" transform="translate(0 -1)"/></g><rect class="cls-14" x="1049.78" y="524.29" width="126.15" height="42.6"/><rect class="cls-14" x="1052.49" y="608.58" width="120.74" height="5.44"/><rect class="cls-14" x="912.82" y="524.29" width="126.15" height="42.6"/><rect class="cls-14" x="912.82" y="629.69" width="126.15" height="67.57"/><rect class="cls-14" x="1049.45" y="712.96" width="126.48" height="67.57"/><rect class="cls-14" x="937.15" y="571.9" width="77.49" height="5.44"/><rect class="cls-14" x="920.03" y="584.13" width="111.73" height="5.44"/><rect class="cls-14" x="926.34" y="596.35" width="99.12" height="5.44"/><rect class="cls-14" x="915.52" y="608.58" width="120.74" height="5.44"/><rect class="cls-14" x="1074.17" y="571.9" width="77.49" height="5.44"/><rect class="cls-14" x="1057.05" y="584.13" width="111.73" height="5.44"/><rect class="cls-14" x="1063.36" y="596.35" width="99.12" height="5.44"/><rect class="cls-14" x="1049.45" y="629.87" width="76.94" height="5.44"/><rect class="cls-14" x="1049.45" y="642.1" width="100.13" height="5.44"/><rect class="cls-14" x="1049.45" y="666.76" width="110.67" height="5.44"/><rect class="cls-14" x="1049.45" y="678.99" width="96.97" height="5.44"/><rect class="cls-14" x="1049.45" y="691.64" width="119.1" height="5.44"/><rect class="cls-14" x="1049.45" y="654.33" width="86.43" height="5.44"/><rect class="cls-14" x="912.43" y="713.14" width="76.94" height="5.44"/><rect class="cls-14" x="912.43" y="725.37" width="100.13" height="5.44"/><rect class="cls-14" x="912.43" y="750.03" width="110.67" height="5.44"/><rect class="cls-14" x="912.43" y="762.26" width="96.97" height="5.44"/><rect class="cls-14" x="912.43" y="774.91" width="119.1" height="5.44"/><rect class="cls-14" x="912.43" y="737.59" width="86.43" height="5.44"/><path d="M915.29,445.33h2.12L916,452.15h3.12l-.34,1.78h-5.24Z" transform="translate(0 -1)"/><path d="M919.84,450.43c0-3.2,2.17-5.26,4.44-5.26,2,0,3.34,1.32,3.34,3.65,0,3.2-2.17,5.27-4.45,5.27C921.19,454.09,919.84,452.76,919.84,450.43Zm5.61-1.48c0-1.24-.48-1.95-1.27-1.95-1,0-2.17,1.32-2.17,3.3,0,1.25.48,2,1.27,2C924.26,452.26,925.45,450.94,925.45,449Z" transform="translate(0 -1)"/><path d="M928.7,450.43c0-3.06,2.09-5.26,4.76-5.26a2.68,2.68,0,0,1,2.49,1.4l-1.43,1.11a1.3,1.3,0,0,0-1.16-.68c-1.38,0-2.49,1.45-2.49,3.3,0,1.25.48,2,1.7,2a1.37,1.37,0,0,0,.74-.22l.31-1.42h-1.27l.32-1.72h3.12l-.82,4.26a4.7,4.7,0,0,1-2.78.9C930.05,454.09,928.7,452.76,928.7,450.43Z" transform="translate(0 -1)"/><path d="M936.9,450.43c0-3.2,2.17-5.26,4.45-5.26,2,0,3.33,1.32,3.33,3.65,0,3.2-2.17,5.27-4.44,5.27C938.25,454.09,936.9,452.76,936.9,450.43Zm5.61-1.48c0-1.24-.48-1.95-1.27-1.95-1,0-2.17,1.32-2.17,3.3,0,1.25.48,2,1.27,2C941.32,452.26,942.51,450.94,942.51,449Z" transform="translate(0 -1)"/><path d="M1050.7,446.3h1.63l-.51,2.48h2l.49-2.48h1.63l-1.33,6.61H1053l.55-2.71h-2l-.53,2.71h-1.62Z" transform="translate(0 -1)"/><path d="M1056.44,450.22c0-2.46,1.67-4,3.41-4a2.49,2.49,0,0,1,2.57,2.8c0,2.46-1.67,4-3.42,4A2.5,2.5,0,0,1,1056.44,450.22Zm4.31-1.13c0-1-.37-1.51-1-1.51s-1.66,1-1.66,2.54c0,1,.36,1.51,1,1.51S1060.75,450.61,1060.75,449.09Z" transform="translate(0 -1)"/><path d="M1064.27,446.3H1066l.43,2.85.15,1.11h0l.58-1.11,1.54-2.85h1.69l-1.32,6.61h-1.52l.46-2.2c.15-.69.43-1.65.65-2.32h0l-.82,1.55-1.4,2.4h-.61l-.43-2.4-.2-1.55h0a22.83,22.83,0,0,1-.25,2.32l-.45,2.2H1063Z" transform="translate(0 -1)"/><path d="M1071.94,446.3h4l-.27,1.36h-2.41l-.23,1.16h2.06l-.27,1.36h-2l-.29,1.37h2.5l-.26,1.36h-4.13Z" transform="translate(0 -1)"/><path d="M1083.26,450.22c0-2.46,1.66-4,3.41-4a2.49,2.49,0,0,1,2.57,2.8c0,2.46-1.67,4-3.42,4A2.5,2.5,0,0,1,1083.26,450.22Zm4.31-1.13c0-1-.37-1.51-1-1.51s-1.67,1-1.67,2.54c0,1,.37,1.51,1,1.51S1087.57,450.61,1087.57,449.09Z" transform="translate(0 -1)"/><path d="M1090.09,446.3h1.71l.12,3.09c0,.69,0,1.39,0,2.09h0c.3-.7.59-1.39.88-2.09l1.34-3.09H1096l-3.4,6.61h-2Z" transform="translate(0 -1)"/><path d="M1096.75,446.3h4l-.26,1.36h-2.42l-.23,1.16h2.06l-.26,1.36h-2.06l-.28,1.37h2.5l-.27,1.36h-4.13Z" transform="translate(0 -1)"/><path d="M1102.2,446.3h2.18c1.32,0,2.34.47,2.34,1.75,0,1.83-1.49,2.58-3.06,2.58H1103l-.44,2.28h-1.63Zm1.61,3.05c.87,0,1.3-.43,1.3-1.06s-.35-.71-1-.71h-.59l-.34,1.77Zm-.31.9,1.16-1.06,1.45,3.72h-1.71Z" transform="translate(0 -1)"/><path d="M1109.44,450.22c0-2.46,1.67-4,3.42-4a2.49,2.49,0,0,1,2.56,2.8c0,2.46-1.66,4-3.41,4A2.5,2.5,0,0,1,1109.44,450.22Zm4.32-1.13c0-1-.37-1.51-1-1.51s-1.67,1-1.67,2.54c0,1,.37,1.51,1,1.51S1113.76,450.61,1113.76,449.09Z" transform="translate(0 -1)"/><path d="M1117.28,446.3h1.56l.92,3.13.32,1.49h0c.07-.72.11-1.71.27-2.51l.43-2.11h1.54l-1.32,6.61h-1.57l-.91-3.13-.31-1.49h0a21.9,21.9,0,0,1-.28,2.48l-.43,2.14H1116Z" transform="translate(0 -1)"/><path d="M1122.35,451.76l1.15-.92a1.83,1.83,0,0,0,1.39.81c.47,0,.77-.22.77-.58s-.29-.43-.75-.71l-.57-.36a1.84,1.84,0,0,1-1-1.69,2.29,2.29,0,0,1,2.43-2.13,2.72,2.72,0,0,1,2.06,1l-1,1a1.57,1.57,0,0,0-1.1-.58c-.47,0-.7.25-.7.57s.29.4.81.73l.61.38a1.6,1.6,0,0,1,.9,1.57,2.32,2.32,0,0,1-2.58,2.2A2.93,2.93,0,0,1,1122.35,451.76Z" transform="translate(0 -1)"/><path d="M1135.14,450.22a3.76,3.76,0,0,1,3.56-4,2,2,0,0,1,1.81,1.08l-1.09.85a1,1,0,0,0-.8-.53c-.95,0-1.81,1.12-1.81,2.54,0,1,.37,1.51,1.26,1.51a1.71,1.71,0,0,0,1-.47l.67,1a3.09,3.09,0,0,1-2,.83A2.51,2.51,0,0,1,1135.14,450.22Z" transform="translate(0 -1)"/><path d="M1140,450.22c0-2.46,1.67-4,3.41-4A2.49,2.49,0,0,1,1146,449c0,2.46-1.67,4-3.42,4A2.5,2.5,0,0,1,1140,450.22Zm4.31-1.13c0-1-.37-1.51-1-1.51s-1.66,1-1.66,2.54c0,1,.36,1.51,1,1.51S1144.28,450.61,1144.28,449.09Z" transform="translate(0 -1)"/><path d="M1147.8,446.3h1.57l.91,3.13.33,1.49h0a23.27,23.27,0,0,1,.26-2.51l.43-2.11h1.55l-1.33,6.61H1150l-.92-3.13-.3-1.49h0a22,22,0,0,1-.29,2.48l-.42,2.14h-1.55Z" transform="translate(0 -1)"/><path d="M1155.33,447.66h-1.67l.27-1.36h5l-.27,1.36H1157l-1,5.25h-1.63Z" transform="translate(0 -1)"/><path d="M1160.52,446.3h2l.63,6.61h-1.71l-.1-3.5c0-.63,0-1.22,0-1.89h0c-.27.65-.49,1.26-.77,1.89l-1.59,3.5h-1.79Zm-1.39,3.88h3.08l-.29,1.22h-3.07Z" transform="translate(0 -1)"/><path d="M1163.77,450.22a3.76,3.76,0,0,1,3.56-4,2,2,0,0,1,1.81,1.08l-1.09.85a1,1,0,0,0-.8-.53c-1,0-1.81,1.12-1.81,2.54,0,1,.37,1.51,1.26,1.51a1.71,1.71,0,0,0,1-.47l.67,1a3.09,3.09,0,0,1-2,.83A2.51,2.51,0,0,1,1163.77,450.22Z" transform="translate(0 -1)"/><path d="M1171.32,447.66h-1.67l.27-1.36h5l-.26,1.36H1173l-1,5.25h-1.63Z" transform="translate(0 -1)"/></g><g id="Phone"><rect x="1700.09" y="537.81" width="145.42" height="289.19" rx="14" ry="14"/><rect class="cls-7" x="1708.21" y="546.99" width="128.53" height="270.83" rx="7" ry="7"/><path d="M1804.85,558.52H1740c-4.09,0-7.41-3.85-7.41-8.61v-6.46h79.68v6.46C1812.26,554.67,1809,558.52,1804.85,558.52Z" transform="translate(0 -1)"/><path d="M1812.25,550.4a2.67,2.67,0,0,1,2.54-2.41c2.25,0,.42-3.67.42-3.67l-7.35,1.84-.91,4.59Z" transform="translate(0 -1)"/><path d="M1732.57,550.4s-.28-2.41-2.53-2.41-.43-3.67-.43-3.67l7.35,1.84.92,4.59Z" transform="translate(0 -1)"/><rect class="cls-13" x="1708.25" y="577.93" width="128.53" height="52.24"/><rect class="cls-14" x="1714.75" y="636.1" width="114.37" height="38.62"/><rect class="cls-14" x="1714.75" y="726.15" width="114.37" height="61.26"/><rect class="cls-14" x="1736.81" y="679.27" width="70.26" height="4.93"/><rect class="cls-14" x="1721.29" y="690.35" width="101.3" height="4.93"/><rect class="cls-14" x="1727.01" y="701.43" width="89.86" height="4.93"/><rect class="cls-14" x="1717.2" y="712.52" width="109.47" height="4.93"/><rect class="cls-14" x="1714.4" y="794.46" width="69.76" height="4.93"/><rect class="cls-14" x="1714.4" y="805.55" width="90.78" height="4.93"/><path d="M1716.08,565.52H1718l-1.24,6.19h2.83l-.31,1.61h-4.75Z" transform="translate(0 -1)"/><path d="M1720.2,570.15c0-2.9,2-4.77,4-4.77,1.8,0,3,1.2,3,3.31,0,2.9-2,4.77-4,4.77C1721.42,573.46,1720.2,572.26,1720.2,570.15Zm5.09-1.34c0-1.13-.44-1.78-1.16-1.78-.88,0-2,1.2-2,3,0,1.13.43,1.78,1.15,1.78C1724.21,571.81,1725.29,570.61,1725.29,568.81Z" transform="translate(0 -1)"/><path d="M1728.23,570.15a4.45,4.45,0,0,1,4.32-4.77,2.44,2.44,0,0,1,2.26,1.27l-1.3,1a1.17,1.17,0,0,0-1-.63c-1.25,0-2.26,1.32-2.26,3,0,1.13.43,1.8,1.54,1.8a1.3,1.3,0,0,0,.67-.19l.29-1.3h-1.15l.28-1.56h2.83l-.74,3.86a4.23,4.23,0,0,1-2.52.82A3,3,0,0,1,1728.23,570.15Z" transform="translate(0 -1)"/><path d="M1735.67,570.15c0-2.9,2-4.77,4-4.77,1.8,0,3,1.2,3,3.31,0,2.9-2,4.77-4,4.77C1736.89,573.46,1735.67,572.26,1735.67,570.15Zm5.08-1.34c0-1.13-.43-1.78-1.15-1.78-.88,0-2,1.2-2,3,0,1.13.43,1.78,1.15,1.78C1739.67,571.81,1740.75,570.61,1740.75,568.81Z" transform="translate(0 -1)"/><path class="cls-7" d="M1728.67,592.25h3.74c2.2,0,4,.76,4,3.23s-1.8,3.41-4,3.41H1731v3.73h-2.35Zm3.55,4.78c1.23,0,1.89-.53,1.89-1.55s-.66-1.37-1.89-1.37H1731V597Zm-.24,1.24,1.62-1.5,3.31,5.85h-2.62Z" transform="translate(0 -1)"/><path class="cls-7" d="M1738.43,592.25h6.49v2h-4.15v2.08h3.53v2h-3.53v2.39h4.31v2h-6.65Z" transform="translate(0 -1)"/><path class="cls-7" d="M1747.14,592.25h3.56c2.28,0,4.12.82,4.12,3.33s-1.86,3.52-4,3.52h-1.29v3.52h-2.34Zm3.49,5c1.29,0,1.9-.58,1.9-1.66s-.7-1.47-2-1.47h-1.08v3.13Z" transform="translate(0 -1)"/><path class="cls-7" d="M1755.8,601.31l1.34-1.61a4.16,4.16,0,0,0,2.55,1.08c1,0,1.46-.38,1.46-1s-.59-.86-1.5-1.23l-1.35-.58a3,3,0,0,1-2.09-2.82c0-1.72,1.54-3.09,3.69-3.09a4.78,4.78,0,0,1,3.34,1.36l-1.18,1.47a3.43,3.43,0,0,0-2.16-.81c-.8,0-1.32.34-1.32.93s.68.87,1.59,1.23l1.32.53a2.87,2.87,0,0,1,2,2.82c0,1.73-1.43,3.22-3.9,3.22A5.69,5.69,0,0,1,1755.8,601.31Z" transform="translate(0 -1)"/><path class="cls-7" d="M1764.81,597.39c0-3.39,1.92-5.33,4.71-5.33s4.71,2,4.71,5.33-1.91,5.42-4.71,5.42S1764.81,600.78,1764.81,597.39Zm7,0c0-2.08-.89-3.31-2.31-3.31s-2.3,1.23-2.3,3.31.89,3.39,2.3,3.39S1771.83,599.47,1771.83,597.39Z" transform="translate(0 -1)"/><path class="cls-7" d="M1776.19,592.25h2.4l2.7,5.16,1,2.27h.06c-.11-1.09-.3-2.55-.3-3.77v-3.66h2.24v10.37h-2.41l-2.7-5.17-1-2.27h-.06c.11,1.15.3,2.54.3,3.76v3.68h-2.23Z" transform="translate(0 -1)"/><path class="cls-7" d="M1786.09,601.31l1.35-1.61a4.13,4.13,0,0,0,2.55,1.08c1,0,1.45-.38,1.45-1s-.59-.86-1.49-1.23l-1.35-.58a3,3,0,0,1-2.09-2.82c0-1.72,1.53-3.09,3.69-3.09a4.8,4.8,0,0,1,3.34,1.36l-1.19,1.47a3.38,3.38,0,0,0-2.15-.81c-.81,0-1.32.34-1.32.93s.68.87,1.58,1.23l1.32.53a2.87,2.87,0,0,1,2.06,2.82c0,1.73-1.44,3.22-3.91,3.22A5.7,5.7,0,0,1,1786.09,601.31Z" transform="translate(0 -1)"/><path class="cls-7" d="M1795.6,592.25h2.34v10.37h-2.34Z" transform="translate(0 -1)"/><path class="cls-7" d="M1799.05,592.25h2.48l1.25,4.83c.31,1.13.52,2.18.84,3.33h.06c.31-1.15.53-2.2.83-3.33l1.22-4.83h2.4L1805,602.62h-2.81Z" transform="translate(0 -1)"/><path class="cls-7" d="M1809.11,592.25h6.5v2h-4.15v2.08H1815v2h-3.53v2.39h4.31v2h-6.66Z" transform="translate(0 -1)"/><path class="cls-7" d="M1746.67,609.22h2.93c3.17,0,5.21,1.57,5.21,5.14s-2,5.22-5.08,5.22h-3.06Zm2.79,8.48c1.76,0,3-.87,3-3.34s-1.19-3.26-3-3.26H1749v6.6Z" transform="translate(0 -1)"/><path class="cls-7" d="M1756.76,609.22h6.5v2h-4.15v2.08h3.53v2h-3.53v2.39h4.31v2h-6.66Z" transform="translate(0 -1)"/><path class="cls-7" d="M1764.81,618.28l1.34-1.61a4.16,4.16,0,0,0,2.55,1.08c1,0,1.46-.38,1.46-1s-.59-.86-1.5-1.23l-1.34-.58a3,3,0,0,1-2.1-2.82c0-1.72,1.54-3.09,3.7-3.09a4.81,4.81,0,0,1,3.33,1.35l-1.18,1.48a3.38,3.38,0,0,0-2.15-.81c-.81,0-1.33.34-1.33.93s.68.87,1.59,1.23l1.32.53a2.86,2.86,0,0,1,2,2.82c0,1.72-1.43,3.21-3.9,3.21A5.74,5.74,0,0,1,1764.81,618.28Z" transform="translate(0 -1)"/><path class="cls-7" d="M1774.32,609.22h2.34v10.36h-2.34Z" transform="translate(0 -1)"/><path class="cls-7" d="M1778.62,614.46c0-3.44,2.28-5.43,5.05-5.43a4.51,4.51,0,0,1,3.27,1.34l-1.23,1.5a2.71,2.71,0,0,0-2-.82c-1.6,0-2.73,1.25-2.73,3.33s1,3.37,2.92,3.37a1.85,1.85,0,0,0,1.09-.31v-1.79h-1.71v-1.91h3.79v4.78a5,5,0,0,1-3.42,1.25C1780.84,619.77,1778.62,618,1778.62,614.46Z" transform="translate(0 -1)"/><path class="cls-7" d="M1789.25,609.22h2.41l2.7,5.15,1,2.28h.06c-.11-1.1-.3-2.55-.3-3.77v-3.66h2.23v10.36H1795l-2.7-5.17-1-2.26h-.06c.11,1.14.3,2.53.3,3.75v3.68h-2.24Z" transform="translate(0 -1)"/><rect x="1811.54" y="562.6" width="17.44" height="1.84"/><rect x="1811.54" y="567.19" width="17.44" height="1.84"/><rect x="1811.54" y="567.19" width="17.44" height="1.84"/><rect x="1811.54" y="571.78" width="17.44" height="1.84"/></g></svg>