<svg xmlns="http://www.w3.org/2000/svg" xmlns:xlink="http://www.w3.org/1999/xlink" viewBox="0 0 1920 1079"><defs><style>.cls-1{fill:#3fa9f5;}.cls-2{fill:gray;}.cls-3{fill:#666;}.cls-4{isolation:isolate;}.cls-5{fill:#4d4d4d;}.cls-6{fill:url(#Naamloos_verloop_10);}.cls-7{fill:#fff;}.cls-8{fill:#b3b3b3;}.cls-9{fill:#ec6b56;}.cls-10{fill:#fcc052;}.cls-11{fill:#82d353;}.cls-12{fill:#e6e6e6;}.cls-13{fill:#999;}</style><linearGradient id="Naamloos_verloop_10" x1="960.94" y1="945.53" x2="960.94" y2="874.25" gradientUnits="userSpaceOnUse"><stop offset="0" stop-color="#666"/><stop offset="1" stop-color="#333"/></linearGradient></defs><title>bg-masterhead</title><g id="Laag_1" data-name="Laag 1"><rect id="background" class="cls-1" width="1920" height="1079"/></g><g id="PC"><polygon class="cls-2" points="1035.24 981.9 886.63 981.9 867.19 1037.18 1054.69 1037.18 1035.24 981.9"/><polygon class="cls-3" points="1038.02 992.08 883.85 992.08 890.8 874.25 1031.08 874.25 1038.02 992.08"/><path class="cls-3" d="M867.19,1037.18h187.5a0,0,0,0,1,0,0V1041a2,2,0,0,1-2,2H869.19a2,2,0,0,1-2-2v-3.82A0,0,0,0,1,867.19,1037.18Z"/><g class="cls-4"><polygon class="cls-5" points="890.8 874.25 1031.08 874.25 1034.48 945.53 887.39 945.53 890.8 874.25"/><polygon class="cls-6" points="890.8 874.25 1031.08 874.25 1034.48 945.53 887.39 945.53 890.8 874.25"/></g><rect x="550" y="418" width="820.31" height="500" rx="15" ry="15"/><rect class="cls-7" x="585.94" y="457.06" width="750" height="421.88"/><rect class="cls-8" x="589.5" y="461.75" width="742.19" height="414.06" rx="2" ry="2"/><rect class="cls-7" x="597.64" y="499.25" width="726.6" height="370.31"/><ellipse class="cls-9" cx="1308.64" cy="478.94" rx="6.24" ry="6.25"/><ellipse class="cls-10" cx="1291.49" cy="478.94" rx="6.24" ry="6.25"/><ellipse class="cls-11" cx="1274.34" cy="478.94" rx="6.24" ry="6.25"/><rect class="cls-12" x="660.01" y="468" width="595.62" height="21.88" rx="2" ry="2"/><rect class="cls-1" x="597.64" y="532.06" width="726.6" height="151.56"/><g id="Responsive_design" data-name="Responsive design"><path class="cls-7" d="M723.62,587.07h11.71c6.89,0,12.55,2.4,12.55,10.15,0,7.48-5.66,10.71-12.55,10.71H731v11.72h-7.35Zm11.11,15c3.86,0,5.94-1.66,5.94-4.86s-2.08-4.3-5.94-4.3H731v9.16ZM734,606l5.09-4.71,10.38,18.38h-8.23Z" transform="translate(0 -1)"/><path class="cls-7" d="M754.21,587.07h20.37v6.18h-13v6.54h11.08V606H761.56v7.5h13.52v6.18H754.21Z" transform="translate(0 -1)"/><path class="cls-7" d="M779.44,615.54l4.22-5a13,13,0,0,0,8,3.4c3.07,0,4.57-1.21,4.57-3.14s-1.85-2.71-4.69-3.88l-4.22-1.81c-3.37-1.37-6.57-4.15-6.57-8.88,0-5.4,4.82-9.71,11.59-9.71a15,15,0,0,1,10.46,4.27l-3.71,4.64a10.57,10.57,0,0,0-6.75-2.55c-2.54,0-4.15,1.06-4.15,2.92s2.12,2.73,5,3.86l4.15,1.68c4,1.61,6.45,4.26,6.45,8.86,0,5.42-4.51,10.1-12.25,10.1A17.87,17.87,0,0,1,779.44,615.54Z" transform="translate(0 -1)"/><path class="cls-7" d="M809.26,587.07h11.17c7.16,0,12.93,2.56,12.93,10.48,0,7.66-5.84,11.05-12.73,11.05h-4v11h-7.35Zm10.94,15.68c4,0,5.95-1.81,5.95-5.2s-2.17-4.63-6.15-4.63h-3.39v9.83Z" transform="translate(0 -1)"/><path class="cls-7" d="M837.48,603.22c0-10.65,6-16.75,14.77-16.75S867,592.61,867,603.22s-6,17-14.77,17S837.48,613.87,837.48,603.22Zm22,0c0-6.53-2.8-10.39-7.23-10.39S845,596.69,845,603.22s2.8,10.67,7.24,10.67S859.48,609.75,859.48,603.22Z" transform="translate(0 -1)"/><path class="cls-7" d="M873.16,587.07h7.53l8.49,16.2,3.21,7.16h.2c-.34-3.44-.94-8-.94-11.85V587.07h7v32.58h-7.53l-8.49-16.24-3.22-7.12h-.2c.35,3.59.94,8,.94,11.8v11.56h-7Z" transform="translate(0 -1)"/><path class="cls-7" d="M904.24,615.54l4.22-5a13,13,0,0,0,8,3.4c3.07,0,4.58-1.21,4.58-3.14s-1.85-2.71-4.69-3.88l-4.23-1.81c-3.37-1.37-6.56-4.15-6.56-8.88,0-5.4,4.81-9.71,11.58-9.71a15,15,0,0,1,10.46,4.27l-3.71,4.64a10.55,10.55,0,0,0-6.75-2.55c-2.53,0-4.15,1.06-4.15,2.92s2.13,2.73,5,3.86l4.14,1.68c4,1.61,6.45,4.26,6.45,8.86,0,5.42-4.5,10.1-12.25,10.1A17.84,17.84,0,0,1,904.24,615.54Z" transform="translate(0 -1)"/><path class="cls-7" d="M934.06,587.07h7.35v32.58h-7.35Z" transform="translate(0 -1)"/><path class="cls-7" d="M944.89,587.07h7.78l3.92,15.18c1,3.57,1.62,6.85,2.6,10.45h.2c1-3.6,1.68-6.88,2.61-10.45l3.84-15.18h7.51l-9.81,32.58h-8.83Z" transform="translate(0 -1)"/><path class="cls-7" d="M976.43,587.07h20.38v6.18h-13v6.54h11.08V606H983.79v7.5h13.52v6.18H976.43Z" transform="translate(0 -1)"/><path class="cls-7" d="M1013.75,587.07h9.19c9.93,0,16.33,4.95,16.33,16.15s-6.4,16.43-15.92,16.43h-9.6Zm8.75,26.65c5.51,0,9.24-2.71,9.24-10.5S1028,593,1022.5,593h-1.4v20.72Z" transform="translate(0 -1)"/><path class="cls-7" d="M1045.41,587.07h20.38v6.18h-13v6.54h11.09V606h-11.09v7.5h13.53v6.18h-20.88Z" transform="translate(0 -1)"/><path class="cls-7" d="M1070.65,615.54l4.22-5a13,13,0,0,0,8,3.4c3.07,0,4.57-1.21,4.57-3.14s-1.85-2.71-4.69-3.88l-4.23-1.81c-3.37-1.37-6.56-4.15-6.56-8.88,0-5.4,4.82-9.71,11.58-9.71a15,15,0,0,1,10.46,4.27l-3.71,4.64a10.53,10.53,0,0,0-6.75-2.55c-2.53,0-4.14,1.06-4.14,2.92s2.12,2.73,5,3.86l4.15,1.68c4,1.61,6.45,4.26,6.45,8.86,0,5.42-4.51,10.1-12.26,10.1A17.86,17.86,0,0,1,1070.65,615.54Z" transform="translate(0 -1)"/><path class="cls-7" d="M1100.47,587.07h7.35v32.58h-7.35Z" transform="translate(0 -1)"/><path class="cls-7" d="M1114,603.55c0-10.81,7.17-17.08,15.85-17.08a14.09,14.09,0,0,1,10.26,4.23l-3.88,4.72a8.4,8.4,0,0,0-6.13-2.59c-5,0-8.56,3.94-8.56,10.47,0,6.7,3,10.59,9.14,10.59a5.87,5.87,0,0,0,3.45-1V607.3h-5.39v-6h11.92v15a15.69,15.69,0,0,1-10.73,3.94C1120.93,620.25,1114,614.52,1114,603.55Z" transform="translate(0 -1)"/><path class="cls-7" d="M1147.33,587.07h7.53l8.48,16.2,3.22,7.16h.2c-.35-3.44-.94-8-.94-11.85V587.07h7v32.58h-7.53l-8.48-16.24-3.22-7.12h-.2c.35,3.59.94,8,.94,11.8v11.56h-7Z" transform="translate(0 -1)"/></g><rect class="cls-13" x="851.79" y="700.81" width="218.29" height="73.44"/><rect class="cls-13" x="1088.79" y="700.81" width="218.29" height="73.44"/><rect class="cls-13" x="1105.94" y="783.63" width="183.99" height="9.38"/><rect class="cls-13" x="1130.89" y="799.25" width="134.09" height="9.38"/><rect class="cls-13" x="1101.27" y="814.88" width="193.34" height="9.38"/><rect class="cls-13" x="1112.18" y="830.5" width="171.51" height="9.38"/><rect class="cls-13" x="1093.47" y="846.13" width="208.94" height="9.38"/><rect class="cls-13" x="868.94" y="783.63" width="183.99" height="9.38"/><rect class="cls-13" x="893.89" y="799.25" width="134.09" height="9.38"/><rect class="cls-13" x="864.27" y="814.88" width="193.34" height="9.38"/><rect class="cls-13" x="875.18" y="830.5" width="171.51" height="9.38"/><rect class="cls-13" x="856.47" y="846.13" width="208.94" height="9.38"/><rect class="cls-13" x="614.79" y="700.81" width="218.29" height="73.44"/><rect class="cls-13" x="631.94" y="783.63" width="183.99" height="9.38"/><rect class="cls-13" x="656.89" y="799.25" width="134.09" height="9.38"/><rect class="cls-13" x="627.26" y="814.88" width="193.34" height="9.38"/><rect class="cls-13" x="638.18" y="830.5" width="171.51" height="9.38"/><rect class="cls-13" x="619.47" y="846.13" width="208.94" height="9.38"/><path d="M619.31,510h3.25l-2.11,10.49h4.8l-.53,2.72h-8.05Z" transform="translate(0 -1)"/><path d="M626.3,517.8c0-4.91,3.33-8.08,6.83-8.08,3,0,5.12,2,5.12,5.61,0,4.91-3.33,8.08-6.83,8.08C628.37,523.41,626.3,521.38,626.3,517.8Zm8.62-2.27c0-1.91-.74-3-1.95-3-1.51,0-3.34,2-3.34,5.08,0,1.91.73,3,2,3C633.09,520.61,634.92,518.58,634.92,515.53Z" transform="translate(0 -1)"/><path d="M639.91,517.8c0-4.71,3.21-8.08,7.31-8.08a4.12,4.12,0,0,1,3.82,2.15l-2.19,1.71a2,2,0,0,0-1.79-1.06c-2.11,0-3.82,2.24-3.82,5.08,0,1.91.73,3,2.6,3a2.11,2.11,0,0,0,1.14-.33l.49-2.19h-2l.49-2.64h4.79L649.54,522a7.25,7.25,0,0,1-4.27,1.38C642,523.41,639.91,521.38,639.91,517.8Z" transform="translate(0 -1)"/><path d="M652.51,517.8c0-4.91,3.33-8.08,6.82-8.08,3,0,5.12,2,5.12,5.61,0,4.91-3.33,8.08-6.83,8.08C654.58,523.41,652.51,521.38,652.51,517.8Zm8.61-2.27c0-1.91-.73-3-2-3-1.51,0-3.33,2-3.33,5.08,0,1.91.73,3,1.95,3C659.29,520.61,661.12,518.58,661.12,515.53Z" transform="translate(0 -1)"/><path d="M1117,511.45h2.5l-.78,3.81h3l.75-3.81h2.5l-2,10.15h-2.49l.84-4.15h-3l-.81,4.15H1115Z" transform="translate(0 -1)"/><path d="M1125.83,517.48c0-3.78,2.56-6.21,5.25-6.21,2.34,0,3.93,1.56,3.93,4.31,0,3.78-2.56,6.21-5.24,6.21C1127.42,521.79,1125.83,520.23,1125.83,517.48Zm6.62-1.75c0-1.46-.56-2.31-1.5-2.31-1.15,0-2.56,1.56-2.56,3.91,0,1.46.57,2.31,1.5,2.31C1131.05,519.64,1132.45,518.08,1132.45,515.73Z" transform="translate(0 -1)"/><path d="M1137.86,511.45h2.59l.66,4.38.24,1.71h.06l.89-1.71,2.37-4.38h2.59l-2,10.15h-2.34l.72-3.37a36.89,36.89,0,0,1,1-3.56h0l-1.26,2.38-2.16,3.68h-.93l-.66-3.68-.31-2.38h0c-.08,1-.19,2.53-.39,3.56l-.69,3.37h-2.28Z" transform="translate(0 -1)"/><path d="M1149.64,511.45h6.19l-.41,2.1h-3.71l-.35,1.78h3.16l-.41,2.09H1151l-.44,2.09h3.84l-.41,2.09h-6.34Z" transform="translate(0 -1)"/><path d="M1167,517.48c0-3.78,2.56-6.21,5.25-6.21,2.34,0,3.93,1.56,3.93,4.31,0,3.78-2.56,6.21-5.25,6.21C1168.61,521.79,1167,520.23,1167,517.48Zm6.62-1.75c0-1.46-.56-2.31-1.5-2.31-1.15,0-2.56,1.56-2.56,3.91,0,1.46.56,2.31,1.5,2.31C1172.24,519.64,1173.64,518.08,1173.64,515.73Z" transform="translate(0 -1)"/><path d="M1177.52,511.45h2.62l.19,4.75c0,1.06.06,2.14.06,3.22h.07l1.34-3.22,2.06-4.75h2.75l-5.22,10.15h-3Z" transform="translate(0 -1)"/><path d="M1187.74,511.45h6.18l-.4,2.1h-3.72l-.35,1.78h3.16l-.41,2.09h-3.15l-.44,2.09h3.84l-.4,2.09h-6.34Z" transform="translate(0 -1)"/><path d="M1196.11,511.45h3.35c2,0,3.59.72,3.59,2.69,0,2.81-2.28,4-4.69,4h-1.09l-.69,3.49h-2.5Zm2.47,4.69c1.34,0,2-.66,2-1.62,0-.76-.53-1.1-1.47-1.1h-.9l-.54,2.72Zm-.47,1.37,1.78-1.62,2.22,5.71h-2.62Z" transform="translate(0 -1)"/><path d="M1207.24,517.48c0-3.78,2.56-6.21,5.25-6.21,2.34,0,3.93,1.56,3.93,4.31,0,3.78-2.56,6.21-5.25,6.21C1208.83,521.79,1207.24,520.23,1207.24,517.48Zm6.62-1.75c0-1.46-.56-2.31-1.5-2.31-1.15,0-2.56,1.56-2.56,3.91,0,1.46.56,2.31,1.5,2.31C1212.45,519.64,1213.86,518.08,1213.86,515.73Z" transform="translate(0 -1)"/><path d="M1219.27,511.45h2.4l1.41,4.81.5,2.28h.06a36.72,36.72,0,0,1,.41-3.84l.65-3.25h2.38l-2,10.15h-2.41l-1.4-4.8-.47-2.28h-.07a32.44,32.44,0,0,1-.43,3.81l-.66,3.27h-2.37Z" transform="translate(0 -1)"/><path d="M1227.05,519.84l1.78-1.41a2.77,2.77,0,0,0,2.13,1.24c.71,0,1.18-.33,1.18-.89s-.45-.66-1.15-1.1l-.88-.54a2.82,2.82,0,0,1-1.5-2.59,3.52,3.52,0,0,1,3.74-3.28,4.19,4.19,0,0,1,3.15,1.57l-1.56,1.47a2.45,2.45,0,0,0-1.69-.89c-.72,0-1.08.39-1.08.88s.44.6,1.25,1.12l.94.58a2.47,2.47,0,0,1,1.38,2.42c0,1.86-1.54,3.37-4,3.37A4.53,4.53,0,0,1,1227.05,519.84Z" transform="translate(0 -1)"/><path d="M1246.71,517.48c0-3.62,2.46-6.21,5.46-6.21a3.09,3.09,0,0,1,2.78,1.65l-1.68,1.31a1.46,1.46,0,0,0-1.22-.81c-1.47,0-2.78,1.72-2.78,3.91,0,1.46.56,2.31,1.94,2.31a2.54,2.54,0,0,0,1.56-.72l1,1.59a4.72,4.72,0,0,1-3.13,1.28C1248.3,521.79,1246.71,520.23,1246.71,517.48Z" transform="translate(0 -1)"/><path d="M1254.11,517.48c0-3.78,2.57-6.21,5.25-6.21,2.34,0,3.94,1.56,3.94,4.31,0,3.78-2.56,6.21-5.25,6.21C1255.71,521.79,1254.11,520.23,1254.11,517.48Zm6.63-1.75c0-1.46-.57-2.31-1.5-2.31-1.16,0-2.56,1.56-2.56,3.91,0,1.46.56,2.31,1.49,2.31C1259.33,519.64,1260.74,518.08,1260.74,515.73Z" transform="translate(0 -1)"/><path d="M1266.15,511.45h2.4l1.41,4.81.49,2.28h.07a34.11,34.11,0,0,1,.4-3.84l.66-3.25H1274l-2,10.15h-2.4l-1.41-4.8-.47-2.28h-.06a32.51,32.51,0,0,1-.44,3.81l-.65,3.27h-2.38Z" transform="translate(0 -1)"/><path d="M1277.71,513.55h-2.57l.41-2.1h7.62l-.4,2.1h-2.57l-1.59,8.05h-2.5Z" transform="translate(0 -1)"/><path d="M1285.67,511.45h3l1,10.15H1287l-.16-5.37c0-1-.06-1.87-.06-2.9h-.06c-.41,1-.75,1.93-1.19,2.9l-2.44,5.37h-2.75Zm-2.12,6h4.72l-.44,1.87h-4.72Z" transform="translate(0 -1)"/><path d="M1290.68,517.48c0-3.62,2.46-6.21,5.46-6.21a3.09,3.09,0,0,1,2.78,1.65l-1.68,1.31a1.48,1.48,0,0,0-1.22-.81c-1.47,0-2.78,1.72-2.78,3.91,0,1.46.56,2.31,1.93,2.31a2.52,2.52,0,0,0,1.56-.72l1,1.59a4.72,4.72,0,0,1-3.13,1.28C1292.27,521.79,1290.68,520.23,1290.68,517.48Z" transform="translate(0 -1)"/><path d="M1302.27,513.55h-2.56l.4-2.1h7.62l-.4,2.1h-2.56l-1.6,8.05h-2.5Z" transform="translate(0 -1)"/></g><g id="Tablet"><rect x="379.5" y="592" width="338.25" height="451" rx="15" ry="15"/><rect class="cls-7" x="395.85" y="609.43" width="305.55" height="416.66" rx="8" ry="8"/><rect class="cls-1" x="395.85" y="634.5" width="305.55" height="64.16"/><g id="Responsive_design-2" data-name="Responsive design"><path class="cls-7" d="M438.69,658.41h5.71c3.36,0,6.12,1.17,6.12,5s-2.76,5.24-6.12,5.24h-2.12v5.73h-3.59Zm5.42,7.34c1.88,0,2.9-.81,2.9-2.38s-1-2.1-2.9-2.1h-1.83v4.48Zm-.36,1.91,2.47-2.31,5.06,9h-4Z" transform="translate(0 -1)"/><path class="cls-7" d="M453.6,658.41h9.93v3h-6.35v3.2h5.41v3h-5.41v3.67h6.59v3H453.6Z" transform="translate(0 -1)"/><path class="cls-7" d="M465.9,672.33l2.06-2.47a6.24,6.24,0,0,0,3.89,1.67c1.49,0,2.23-.6,2.23-1.54s-.9-1.33-2.29-1.9l-2.06-.88a4.66,4.66,0,0,1-3.2-4.35c0-2.64,2.35-4.75,5.65-4.75a7.35,7.35,0,0,1,5.1,2.09l-1.81,2.27a5.19,5.19,0,0,0-3.29-1.25c-1.24,0-2,.52-2,1.43s1,1.34,2.42,1.89l2,.82a4.4,4.4,0,0,1,3.14,4.34c0,2.64-2.2,4.94-6,4.94A8.71,8.71,0,0,1,465.9,672.33Z" transform="translate(0 -1)"/><path class="cls-7" d="M480.43,658.41h5.44c3.49,0,6.3,1.25,6.3,5.12s-2.84,5.41-6.2,5.41h-2v5.4h-3.58Zm5.33,7.67c2,0,2.9-.89,2.9-2.55s-1.06-2.26-3-2.26H484v4.81Z" transform="translate(0 -1)"/><path class="cls-7" d="M494.18,666.31c0-5.21,2.93-8.2,7.2-8.2s7.2,3,7.2,8.2-2.93,8.33-7.2,8.33S494.18,671.51,494.18,666.31Zm10.72,0c0-3.2-1.36-5.09-3.52-5.09s-3.53,1.89-3.53,5.09,1.37,5.22,3.53,5.22S504.9,669.5,504.9,666.31Z" transform="translate(0 -1)"/><path class="cls-7" d="M511.57,658.41h3.67l4.13,7.92,1.57,3.5h.1c-.17-1.68-.46-3.92-.46-5.79v-5.63H524v15.93h-3.67l-4.13-7.94-1.57-3.49h-.1c.17,1.76.46,3.9.46,5.78v5.65h-3.41Z" transform="translate(0 -1)"/><path class="cls-7" d="M526.71,672.33l2.06-2.47a6.29,6.29,0,0,0,3.89,1.67c1.5,0,2.23-.6,2.23-1.54s-.9-1.33-2.29-1.9l-2.05-.88a4.65,4.65,0,0,1-3.2-4.35c0-2.64,2.34-4.75,5.64-4.75a7.33,7.33,0,0,1,5.1,2.09l-1.81,2.27a5.17,5.17,0,0,0-3.29-1.25c-1.23,0-2,.52-2,1.43s1,1.34,2.42,1.89l2,.82a4.4,4.4,0,0,1,3.14,4.34c0,2.64-2.19,4.94-6,4.94A8.71,8.71,0,0,1,526.71,672.33Z" transform="translate(0 -1)"/><path class="cls-7" d="M541.24,658.41h3.59v15.93h-3.59Z" transform="translate(0 -1)"/><path class="cls-7" d="M546.52,658.41h3.79l1.91,7.42c.48,1.75.79,3.35,1.27,5.11h.1c.48-1.76.82-3.36,1.27-5.11l1.87-7.42h3.66l-4.78,15.93h-4.3Z" transform="translate(0 -1)"/><path class="cls-7" d="M561.9,658.41h9.92v3h-6.34v3.2h5.4v3h-5.4v3.67h6.59v3H561.9Z" transform="translate(0 -1)"/><path class="cls-7" d="M580.08,658.41h4.48c4.84,0,8,2.42,8,7.9s-3.12,8-7.76,8h-4.68Zm4.26,13c2.69,0,4.51-1.32,4.51-5.13s-1.82-5-4.51-5h-.68v10.13Z" transform="translate(0 -1)"/><path class="cls-7" d="M595.51,658.41h9.93v3h-6.35v3.2h5.41v3h-5.41v3.67h6.59v3H595.51Z" transform="translate(0 -1)"/><path class="cls-7" d="M607.81,672.33l2.06-2.47a6.24,6.24,0,0,0,3.89,1.67c1.49,0,2.23-.6,2.23-1.54s-.91-1.33-2.29-1.9l-2.06-.88a4.66,4.66,0,0,1-3.2-4.35c0-2.64,2.35-4.75,5.65-4.75a7.31,7.31,0,0,1,5.09,2.09l-1.8,2.27a5.19,5.19,0,0,0-3.29-1.25c-1.24,0-2,.52-2,1.43s1,1.34,2.41,1.89l2,.82a4.4,4.4,0,0,1,3.15,4.34c0,2.64-2.2,4.94-6,4.94A8.69,8.69,0,0,1,607.81,672.33Z" transform="translate(0 -1)"/><path class="cls-7" d="M622.34,658.41h3.58v15.93h-3.58Z" transform="translate(0 -1)"/><path class="cls-7" d="M628.91,666.47c0-5.29,3.5-8.36,7.73-8.36a6.86,6.86,0,0,1,5,2.07l-1.89,2.31a4.09,4.09,0,0,0-3-1.27c-2.44,0-4.17,1.93-4.17,5.13s1.47,5.18,4.45,5.18a2.81,2.81,0,0,0,1.68-.48V668.3H636.1v-2.94h5.8v7.35a7.63,7.63,0,0,1-5.23,1.93C632.31,674.64,628.91,671.84,628.91,666.47Z" transform="translate(0 -1)"/><path class="cls-7" d="M645.17,658.41h3.67l4.14,7.92,1.57,3.5h.09c-.17-1.68-.45-3.92-.45-5.79v-5.63h3.41v15.93h-3.67l-4.14-7.94-1.56-3.49h-.1c.17,1.76.46,3.9.46,5.78v5.65h-3.42Z" transform="translate(0 -1)"/></g><rect class="cls-13" x="553.52" y="705.94" width="140.46" height="47.43"/><rect class="cls-13" x="556.53" y="799.8" width="134.44" height="6.06"/><rect class="cls-13" x="401.01" y="705.94" width="140.46" height="47.43"/><rect class="cls-13" x="401.01" y="823.3" width="140.46" height="75.23"/><rect class="cls-13" x="553.15" y="916.02" width="140.83" height="75.23"/><rect class="cls-13" x="428.1" y="758.96" width="86.29" height="6.06"/><rect class="cls-13" x="409.04" y="772.57" width="124.41" height="6.06"/><rect class="cls-13" x="416.06" y="786.19" width="110.37" height="6.06"/><rect class="cls-13" x="404.02" y="799.8" width="134.44" height="6.06"/><rect class="cls-13" x="580.67" y="758.96" width="86.29" height="6.06"/><rect class="cls-13" x="561.61" y="772.57" width="124.41" height="6.06"/><rect class="cls-13" x="568.63" y="786.19" width="110.37" height="6.06"/><rect class="cls-13" x="553.15" y="823.51" width="85.67" height="6.06"/><rect class="cls-13" x="553.15" y="837.12" width="111.49" height="6.06"/><rect class="cls-13" x="553.15" y="864.58" width="123.23" height="6.06"/><rect class="cls-13" x="553.15" y="878.2" width="107.97" height="6.06"/><rect class="cls-13" x="553.15" y="892.28" width="132.62" height="6.06"/><rect class="cls-13" x="553.15" y="850.73" width="96.24" height="6.06"/><rect class="cls-13" x="400.58" y="916.22" width="85.67" height="6.06"/><rect class="cls-13" x="400.58" y="929.84" width="111.49" height="6.06"/><rect class="cls-13" x="400.58" y="957.3" width="123.23" height="6.06"/><rect class="cls-13" x="400.58" y="970.91" width="107.97" height="6.06"/><rect class="cls-13" x="400.58" y="984.99" width="132.62" height="6.06"/><rect class="cls-13" x="400.58" y="943.45" width="96.24" height="6.06"/><path d="M403.76,617.91h2.36l-1.53,7.6h3.47l-.38,2h-5.83Z" transform="translate(0 -1)"/><path d="M408.83,623.59c0-3.56,2.42-5.86,4.95-5.86,2.21,0,3.71,1.48,3.71,4.07,0,3.56-2.42,5.86-4.95,5.86C410.33,627.66,408.83,626.19,408.83,623.59Zm6.24-1.64c0-1.39-.53-2.18-1.41-2.18-1.09,0-2.41,1.47-2.41,3.68,0,1.38.53,2.18,1.41,2.18C413.75,625.63,415.07,624.15,415.07,622Z" transform="translate(0 -1)"/><path d="M418.7,623.59c0-3.41,2.32-5.86,5.3-5.86a3,3,0,0,1,2.77,1.56l-1.59,1.24a1.46,1.46,0,0,0-1.3-.76c-1.53,0-2.77,1.62-2.77,3.68,0,1.38.53,2.21,1.89,2.21a1.54,1.54,0,0,0,.82-.24l.36-1.59h-1.42l.35-1.91h3.48l-.91,4.74a5.26,5.26,0,0,1-3.1,1C420.2,627.66,418.7,626.19,418.7,623.59Z" transform="translate(0 -1)"/><path d="M427.83,623.59c0-3.56,2.41-5.86,4.95-5.86,2.2,0,3.71,1.48,3.71,4.07,0,3.56-2.42,5.86-4.95,5.86C429.33,627.66,427.83,626.19,427.83,623.59Zm6.24-1.64c0-1.39-.53-2.18-1.41-2.18-1.09,0-2.42,1.47-2.42,3.68,0,1.38.53,2.18,1.42,2.18C432.75,625.63,434.07,624.15,434.07,622Z" transform="translate(0 -1)"/><path d="M554.54,619h1.81l-.57,2.76H558l.54-2.76h1.81l-1.47,7.36h-1.81l.61-3h-2.2l-.58,3h-1.82Z" transform="translate(0 -1)"/><path d="M560.92,623.36c0-2.74,1.86-4.5,3.81-4.5,1.7,0,2.85,1.13,2.85,3.12,0,2.74-1.86,4.51-3.8,4.51C562.08,626.49,560.92,625.35,560.92,623.36Zm4.8-1.27c0-1.06-.4-1.67-1.08-1.67-.84,0-1.86,1.13-1.86,2.83,0,1.06.41,1.67,1.09,1.67C564.71,624.92,565.72,623.79,565.72,622.09Z" transform="translate(0 -1)"/><path d="M569.65,619h1.88l.47,3.17.17,1.25h.05l.64-1.25,1.72-3.17h1.88L575,626.35h-1.7l.52-2.45a26.05,26.05,0,0,1,.73-2.58h0l-.91,1.72L572,625.72h-.68l-.48-2.68-.23-1.72h0c-.06.75-.14,1.84-.28,2.58l-.5,2.45h-1.65Z" transform="translate(0 -1)"/><path d="M578.19,619h4.48l-.29,1.52h-2.7l-.25,1.29h2.29l-.29,1.52h-2.29l-.32,1.51h2.79l-.3,1.52h-4.59Z" transform="translate(0 -1)"/><path d="M590.79,623.36c0-2.74,1.85-4.5,3.8-4.5,1.7,0,2.85,1.13,2.85,3.12,0,2.74-1.85,4.51-3.8,4.51C591.94,626.49,590.79,625.35,590.79,623.36Zm4.8-1.27c0-1.06-.41-1.67-1.09-1.67-.84,0-1.86,1.13-1.86,2.83,0,1.06.41,1.67,1.09,1.67C594.57,624.92,595.59,623.79,595.59,622.09Z" transform="translate(0 -1)"/><path d="M598.4,619h1.9l.14,3.44c0,.77,0,1.55,0,2.33h0c.33-.78.64-1.55,1-2.33L603,619h2l-3.78,7.36H599Z" transform="translate(0 -1)"/><path d="M605.81,619h4.48l-.29,1.52h-2.7l-.25,1.29h2.29l-.29,1.52h-2.29l-.32,1.51h2.79l-.3,1.52h-4.59Z" transform="translate(0 -1)"/><path d="M611.88,619h2.42c1.47,0,2.61.52,2.61,2,0,2-1.66,2.87-3.4,2.87h-.79l-.5,2.54h-1.81Zm1.79,3.4c1,0,1.45-.48,1.45-1.18,0-.54-.39-.79-1.07-.79h-.65l-.39,2Zm-.34,1,1.29-1.17,1.61,4.14h-1.9Z" transform="translate(0 -1)"/><path d="M620,623.36c0-2.74,1.85-4.5,3.8-4.5,1.7,0,2.85,1.13,2.85,3.12,0,2.74-1.85,4.51-3.8,4.51C621.1,626.49,620,625.35,620,623.36Zm4.8-1.27c0-1.06-.41-1.67-1.09-1.67-.84,0-1.86,1.13-1.86,2.83,0,1.06.41,1.67,1.09,1.67C623.73,624.92,624.75,623.79,624.75,622.09Z" transform="translate(0 -1)"/><path d="M628.67,619h1.74l1,3.49.36,1.65h.05a26,26,0,0,1,.29-2.78l.48-2.36h1.72l-1.47,7.36h-1.75l-1-3.49-.34-1.65h0a24.6,24.6,0,0,1-.32,2.76l-.47,2.38H627.2Z" transform="translate(0 -1)"/><path d="M634.31,625.07l1.29-1a2,2,0,0,0,1.54.9c.52,0,.86-.24.86-.65s-.33-.47-.84-.79l-.63-.4a2,2,0,0,1-1.09-1.88,2.55,2.55,0,0,1,2.71-2.37,3,3,0,0,1,2.29,1.14l-1.14,1.06a1.74,1.74,0,0,0-1.22-.64c-.52,0-.78.28-.78.63s.32.44.91.82l.68.42a1.78,1.78,0,0,1,1,1.75,2.58,2.58,0,0,1-2.87,2.45A3.3,3.3,0,0,1,634.31,625.07Z" transform="translate(0 -1)"/><path d="M648.56,623.36c0-2.63,1.79-4.5,4-4.5a2.24,2.24,0,0,1,2,1.2l-1.22,1a1.06,1.06,0,0,0-.89-.59c-1.06,0-2,1.24-2,2.83,0,1.06.41,1.67,1.4,1.67a1.83,1.83,0,0,0,1.14-.52l.74,1.16a3.42,3.42,0,0,1-2.26.93C649.72,626.49,648.56,625.35,648.56,623.36Z" transform="translate(0 -1)"/><path d="M653.93,623.36c0-2.74,1.86-4.5,3.81-4.5,1.69,0,2.85,1.13,2.85,3.12,0,2.74-1.86,4.51-3.8,4.51C655.09,626.49,653.93,625.35,653.93,623.36Zm4.8-1.27c0-1.06-.4-1.67-1.08-1.67-.84,0-1.86,1.13-1.86,2.83,0,1.06.41,1.67,1.09,1.67C657.71,624.92,658.73,623.79,658.73,622.09Z" transform="translate(0 -1)"/><path d="M662.66,619h1.74l1,3.49.36,1.65h0a26.14,26.14,0,0,1,.3-2.78l.47-2.36h1.73l-1.48,7.36H665.1l-1-3.49-.34-1.65h0a24.6,24.6,0,0,1-.32,2.76l-.48,2.38h-1.72Z" transform="translate(0 -1)"/><path d="M671,620.51h-1.86l.29-1.52H675l-.3,1.52h-1.85l-1.16,5.84h-1.81Z" transform="translate(0 -1)"/><path d="M676.81,619H679l.7,7.36h-1.9l-.12-3.9c0-.7,0-1.35,0-2.1h0c-.29.72-.54,1.4-.86,2.1l-1.76,3.9h-2Zm-1.54,4.33h3.42l-.31,1.35H675Z" transform="translate(0 -1)"/><path d="M680.44,623.36c0-2.63,1.79-4.5,4-4.5a2.25,2.25,0,0,1,2,1.2l-1.22,1a1.07,1.07,0,0,0-.89-.59c-1.06,0-2,1.24-2,2.83,0,1.06.4,1.67,1.4,1.67a1.81,1.81,0,0,0,1.13-.52l.75,1.16a3.42,3.42,0,0,1-2.26.93C681.59,626.49,680.44,625.35,680.44,623.36Z" transform="translate(0 -1)"/><path d="M688.84,620.51H687l.29-1.52h5.53l-.3,1.52h-1.85l-1.16,5.84h-1.81Z" transform="translate(0 -1)"/></g><g id="Phone"><rect x="1277.6" y="721" width="161.92" height="322" rx="14" ry="14"/><rect class="cls-7" x="1286.64" y="731.22" width="143.11" height="301.56" rx="7" ry="7"/><path d="M1394.26,744H1322c-4.56,0-8.26-4.3-8.26-9.59v-7.2h88.73v7.2C1402.51,739.65,1398.81,744,1394.26,744Z" transform="translate(0 -1)"/><path d="M1402.5,734.91s.31-2.69,2.82-2.69.47-4.09.47-4.09l-8.18,2-1,5.11Z" transform="translate(0 -1)"/><path d="M1313.77,734.91s-.31-2.69-2.82-2.69-.47-4.09-.47-4.09l8.18,2,1,5.11Z" transform="translate(0 -1)"/><rect class="cls-1" x="1286.7" y="765.67" width="143.11" height="58.17"/><rect class="cls-13" x="1293.93" y="830.44" width="127.35" height="43"/><rect class="cls-13" x="1293.93" y="930.71" width="127.35" height="68.21"/><rect class="cls-13" x="1318.49" y="878.5" width="78.23" height="5.49"/><rect class="cls-13" x="1301.21" y="890.85" width="112.79" height="5.49"/><rect class="cls-13" x="1307.58" y="903.19" width="100.06" height="5.49"/><rect class="cls-13" x="1296.66" y="915.53" width="121.89" height="5.49"/><rect class="cls-13" x="1293.54" y="1006.77" width="77.67" height="5.49"/><rect class="cls-13" x="1293.54" y="1019.11" width="101.08" height="5.49"/><path d="M1295.41,751.74h2.13l-1.39,6.89h3.16l-.35,1.79h-5.29Z" transform="translate(0 -1)"/><path d="M1300,756.89c0-3.23,2.19-5.31,4.49-5.31,2,0,3.36,1.33,3.36,3.68,0,3.24-2.19,5.32-4.49,5.32C1301.36,760.58,1300,759.24,1300,756.89Zm5.66-1.49c0-1.26-.48-2-1.28-2-1,0-2.19,1.34-2.19,3.34,0,1.26.48,2,1.28,2C1304.46,758.74,1305.66,757.4,1305.66,755.4Z" transform="translate(0 -1)"/><path d="M1309,756.89c0-3.09,2.11-5.31,4.8-5.31a2.71,2.71,0,0,1,2.51,1.41l-1.44,1.13a1.32,1.32,0,0,0-1.17-.7c-1.39,0-2.51,1.47-2.51,3.34,0,1.26.48,2,1.7,2a1.46,1.46,0,0,0,.75-.21l.32-1.44h-1.28l.32-1.74h3.15l-.82,4.3a4.76,4.76,0,0,1-2.81.91C1310.31,760.58,1309,759.24,1309,756.89Z" transform="translate(0 -1)"/><path d="M1317.22,756.89c0-3.23,2.19-5.31,4.49-5.31,2,0,3.36,1.33,3.36,3.68,0,3.24-2.19,5.32-4.48,5.32C1318.59,760.58,1317.22,759.24,1317.22,756.89Zm5.66-1.49c0-1.26-.48-2-1.28-2-1,0-2.19,1.34-2.19,3.34,0,1.26.48,2,1.29,2C1321.68,758.74,1322.88,757.4,1322.88,755.4Z" transform="translate(0 -1)"/><path class="cls-7" d="M1309.43,781.5h4.16c2.45,0,4.46.85,4.46,3.6s-2,3.79-4.46,3.79H1312V793h-2.61Zm4,5.32c1.37,0,2.11-.59,2.11-1.72s-.74-1.53-2.11-1.53H1312v3.25Zm-.27,1.38,1.81-1.67,3.68,6.51h-2.92Z" transform="translate(0 -1)"/><path class="cls-7" d="M1320.29,781.5h7.23v2.19h-4.62V786h3.94v2.19h-3.94v2.66h4.8V793h-7.41Z" transform="translate(0 -1)"/><path class="cls-7" d="M1330,781.5h4c2.54,0,4.59.91,4.59,3.71s-2.07,3.92-4.52,3.92h-1.42V793H1330Zm3.88,5.56c1.43,0,2.11-.64,2.11-1.85s-.77-1.64-2.18-1.64h-1.2v3.49Z" transform="translate(0 -1)"/><path class="cls-7" d="M1339.64,791.59l1.49-1.79A4.62,4.62,0,0,0,1344,791c1.09,0,1.62-.43,1.62-1.11s-.66-1-1.66-1.37l-1.5-.64a3.37,3.37,0,0,1-2.33-3.15c0-1.91,1.71-3.44,4.11-3.44a5.31,5.31,0,0,1,3.71,1.51l-1.32,1.65a3.72,3.72,0,0,0-2.39-.91c-.9,0-1.47.38-1.47,1s.75,1,1.76,1.36l1.47.6a3.19,3.19,0,0,1,2.29,3.14c0,1.92-1.6,3.58-4.35,3.58A6.34,6.34,0,0,1,1339.64,791.59Z" transform="translate(0 -1)"/><path class="cls-7" d="M1349.67,787.22c0-3.77,2.13-5.93,5.25-5.93s5.24,2.18,5.24,5.93-2.13,6-5.24,6S1349.67,791,1349.67,787.22Zm7.81,0c0-2.31-1-3.68-2.56-3.68s-2.57,1.37-2.57,3.68,1,3.78,2.57,3.78S1357.48,789.54,1357.48,787.22Z" transform="translate(0 -1)"/><path class="cls-7" d="M1362.34,781.5H1365l3,5.74,1.15,2.54h.07a42,42,0,0,1-.34-4.2V781.5h2.49V793h-2.67l-3-5.75-1.14-2.52h-.07c.12,1.27.33,2.82.33,4.18V793h-2.48Z" transform="translate(0 -1)"/><path class="cls-7" d="M1373.37,791.59l1.5-1.79a4.6,4.6,0,0,0,2.83,1.2c1.09,0,1.63-.43,1.63-1.11s-.66-1-1.67-1.37l-1.5-.64a3.38,3.38,0,0,1-2.33-3.15c0-1.91,1.71-3.44,4.11-3.44a5.35,5.35,0,0,1,3.72,1.51l-1.32,1.65a3.72,3.72,0,0,0-2.4-.91c-.9,0-1.47.38-1.47,1s.76,1,1.76,1.36l1.47.6a3.19,3.19,0,0,1,2.29,3.14c0,1.92-1.59,3.58-4.34,3.58A6.36,6.36,0,0,1,1373.37,791.59Z" transform="translate(0 -1)"/><path class="cls-7" d="M1384,781.5h2.6V793H1384Z" transform="translate(0 -1)"/><path class="cls-7" d="M1387.8,781.5h2.76l1.39,5.38c.35,1.26.58,2.43.93,3.7h.07c.35-1.27.6-2.44.92-3.7l1.37-5.38h2.66L1394.42,793h-3.13Z" transform="translate(0 -1)"/><path class="cls-7" d="M1399,781.5h7.23v2.19h-4.62V786h3.93v2.19h-3.93v2.66h4.8V793H1399Z" transform="translate(0 -1)"/><path class="cls-7" d="M1329.47,800.39h3.27c3.52,0,5.79,1.76,5.79,5.72s-2.27,5.83-5.65,5.83h-3.41Zm3.11,9.45c2,0,3.28-1,3.28-3.73s-1.32-3.62-3.28-3.62h-.5v7.35Z" transform="translate(0 -1)"/><path class="cls-7" d="M1340.71,800.39h7.23v2.19h-4.62v2.32h3.94v2.19h-3.94v2.66h4.8v2.19h-7.41Z" transform="translate(0 -1)"/><path class="cls-7" d="M1349.67,810.48l1.5-1.79a4.61,4.61,0,0,0,2.83,1.21c1.09,0,1.63-.43,1.63-1.12s-.66-1-1.67-1.37l-1.5-.64a3.38,3.38,0,0,1-2.33-3.15c0-1.91,1.71-3.44,4.11-3.44a5.35,5.35,0,0,1,3.72,1.51l-1.32,1.65a3.72,3.72,0,0,0-2.4-.91c-.9,0-1.47.38-1.47,1s.76,1,1.76,1.36l1.47.6a3.19,3.19,0,0,1,2.29,3.14c0,1.92-1.59,3.58-4.34,3.58A6.36,6.36,0,0,1,1349.67,810.48Z" transform="translate(0 -1)"/><path class="cls-7" d="M1360.26,800.39h2.6v11.55h-2.6Z" transform="translate(0 -1)"/><path class="cls-7" d="M1365,806.23c0-3.83,2.55-6.05,5.63-6.05a5,5,0,0,1,3.64,1.5l-1.37,1.67a3,3,0,0,0-2.18-.92c-1.78,0-3,1.4-3,3.71s1.07,3.76,3.25,3.76a2.1,2.1,0,0,0,1.22-.35v-2h-1.91v-2.13h4.23v5.32a5.58,5.58,0,0,1-3.81,1.4C1367.52,812.15,1365,810.12,1365,806.23Z" transform="translate(0 -1)"/><path class="cls-7" d="M1376.89,800.39h2.67l3,5.74,1.15,2.54h.07a42,42,0,0,1-.34-4.2v-4.08h2.49v11.55h-2.68l-3-5.76-1.14-2.52H1379c.12,1.27.33,2.82.33,4.18v4.1h-2.48Z" transform="translate(0 -1)"/><rect x="1401.7" y="748.6" width="19.42" height="2.04"/><rect x="1401.7" y="753.71" width="19.42" height="2.04"/><rect x="1401.7" y="753.71" width="19.42" height="2.04"/><rect x="1401.7" y="758.82" width="19.42" height="2.04"/></g></svg>