<?xml version="1.0" encoding="utf-8"?>
<!-- Generator: Adobe Illustrator 22.1.0, SVG Export Plug-In . SVG Version: 6.00 Build 0)  -->
<svg version="1.1" id="Laag_1" xmlns="http://www.w3.org/2000/svg" xmlns:xlink="http://www.w3.org/1999/xlink" x="0px" y="0px"
	 viewBox="0 0 500 350" style="enable-background:new 0 0 500 350;" xml:space="preserve">
<style type="text/css">
	.st0{fill:#0090E3;}
	.st1{fill:#808080;}
	.st2{fill:#666666;}
	.st3{enable-background:new    ;}
	.st4{fill:#4D4D4D;}
	.st5{fill:url(#SVGID_1_);}
	.st6{fill:#FFFFFF;}
	.st7{fill:#B3B3B3;}
	.st8{fill:#EC6B56;}
	.st9{fill:#FCC052;}
	.st10{fill:#82D353;}
	.st11{fill:#E6E6E6;}
	.st12{fill:#3FA9F5;}
	.st13{fill:#999999;}
</style>
<rect id="background" class="st0" width="500" height="350"/>
<g>
	<polygon class="st1" points="303.8,278.7 237.5,278.7 228.8,303.4 312.5,303.4 	"/>
	<polygon class="st2" points="305.1,283.3 236.3,283.3 239.4,230.7 302,230.7 	"/>
	<path class="st2" d="M310.5,306h-79.7c-1.1,0-2-0.9-2-2v-0.6h83.7v0.6C312.5,305.1,311.6,306,310.5,306z"/>
	<g class="st3">
		<polygon class="st4" points="239.4,230.7 302,230.7 303.5,262.5 237.8,262.5 		"/>
		<linearGradient id="SVGID_1_" gradientUnits="userSpaceOnUse" x1="270.6628" y1="262.4904" x2="270.6628" y2="230.67">
			<stop  offset="0" style="stop-color:#666666"/>
			<stop  offset="1" style="stop-color:#333333"/>
		</linearGradient>
		<polygon class="st5" points="239.4,230.7 302,230.7 303.5,262.5 237.8,262.5 		"/>
	</g>
	<path d="M438.4,250.2H102.2c-8.3,0-15-6.7-15-15V42c0-8.3,6.7-15,15-15h336.2c8.3,0,15,6.7,15,15v193.2
		C453.4,243.5,446.7,250.2,438.4,250.2z"/>
	<rect x="103.3" y="44.4" class="st6" width="334.8" height="188.3"/>
	<path class="st7" d="M434.2,231.4H106.9c-1.1,0-2-0.9-2-2V48.5c0-1.1,0.9-2,2-2h327.3c1.1,0,2,0.9,2,2v180.8
		C436.2,230.5,435.3,231.4,434.2,231.4z"/>
	<rect x="108.5" y="63.3" class="st6" width="324.4" height="165.3"/>
	<ellipse class="st8" cx="425.9" cy="54.2" rx="2.8" ry="2.8"/>
	<ellipse class="st9" cx="418.2" cy="54.2" rx="2.8" ry="2.8"/>
	<ellipse class="st10" cx="410.6" cy="54.2" rx="2.8" ry="2.8"/>
	<path class="st11" d="M400.2,59.1H138.3c-1.1,0-2-0.9-2-2v-5.8c0-1.1,0.9-2,2-2h261.9c1.1,0,2,0.9,2,2v5.8
		C402.2,58.2,401.3,59.1,400.2,59.1z"/>
	<rect x="108.5" y="77.9" class="st12" width="324.4" height="67.7"/>
	<g id="Responsive_design">
		<path class="st6" d="M164.7,102h5.2c3.1,0,5.6,1.1,5.6,4.5c0,3.3-2.5,4.8-5.6,4.8H168v5.2h-3.3V102z M169.7,108.7
			c1.7,0,2.7-0.7,2.7-2.2c0-1.4-0.9-1.9-2.7-1.9H168v4.1H169.7z M169.3,110.5l2.3-2.1l4.6,8.2h-3.7L169.3,110.5z"/>
		<path class="st6" d="M178.4,102h9.1v2.8h-5.8v2.9h4.9v2.8h-4.9v3.4h6v2.8h-9.3V102z"/>
		<path class="st6" d="M189.6,114.7l1.9-2.3c1,0.9,2.4,1.5,3.6,1.5c1.4,0,2-0.5,2-1.4c0-0.9-0.8-1.2-2.1-1.7l-1.9-0.8
			c-1.5-0.6-2.9-1.9-2.9-4c0-2.4,2.1-4.3,5.2-4.3c1.7,0,3.4,0.7,4.7,1.9l-1.7,2.1c-1-0.7-1.9-1.1-3-1.1c-1.1,0-1.9,0.5-1.9,1.3
			c0,0.9,0.9,1.2,2.2,1.7l1.9,0.8c1.8,0.7,2.9,1.9,2.9,4c0,2.4-2,4.5-5.5,4.5C193.1,116.8,191.1,116.1,189.6,114.7z"/>
		<path class="st6" d="M203,102h5c3.2,0,5.8,1.1,5.8,4.7c0,3.4-2.6,4.9-5.7,4.9h-1.8v4.9H203V102z M207.8,109c1.8,0,2.7-0.8,2.7-2.3
			c0-1.5-1-2.1-2.7-2.1h-1.5v4.4H207.8z"/>
		<path class="st6" d="M215.6,109.2c0-4.8,2.7-7.5,6.6-7.5c3.9,0,6.6,2.7,6.6,7.5c0,4.8-2.7,7.6-6.6,7.6
			C218.2,116.8,215.6,114,215.6,109.2z M225.4,109.2c0-2.9-1.2-4.6-3.2-4.6c-2,0-3.2,1.7-3.2,4.6c0,2.9,1.2,4.8,3.2,4.8
			C224.1,114,225.4,112.2,225.4,109.2z"/>
		<path class="st6" d="M231.5,102h3.4l3.8,7.2l1.4,3.2h0.1c-0.2-1.5-0.4-3.6-0.4-5.3V102h3.1v14.5h-3.4l-3.8-7.3l-1.4-3.2h-0.1
			c0.2,1.6,0.4,3.6,0.4,5.3v5.2h-3.1V102z"/>
		<path class="st6" d="M245.4,114.7l1.9-2.3c1,0.9,2.4,1.5,3.6,1.5c1.4,0,2-0.5,2-1.4c0-0.9-0.8-1.2-2.1-1.7l-1.9-0.8
			c-1.5-0.6-2.9-1.9-2.9-4c0-2.4,2.1-4.3,5.2-4.3c1.7,0,3.4,0.7,4.7,1.9l-1.7,2.1c-1-0.7-1.9-1.1-3-1.1c-1.1,0-1.9,0.5-1.9,1.3
			c0,0.9,0.9,1.2,2.2,1.7l1.9,0.8c1.8,0.7,2.9,1.9,2.9,4c0,2.4-2,4.5-5.5,4.5C248.8,116.8,246.8,116.1,245.4,114.7z"/>
		<path class="st6" d="M258.7,102h3.3v14.5h-3.3V102z"/>
		<path class="st6" d="M263.5,102h3.5l1.7,6.8c0.4,1.6,0.7,3.1,1.2,4.7h0.1c0.4-1.6,0.7-3.1,1.2-4.7l1.7-6.8h3.4l-4.4,14.5h-3.9
			L263.5,102z"/>
		<path class="st6" d="M277.6,102h9.1v2.8h-5.8v2.9h4.9v2.8h-4.9v3.4h6v2.8h-9.3V102z"/>
		<path class="st6" d="M294.2,102h4.1c4.4,0,7.3,2.2,7.3,7.2c0,5-2.9,7.3-7.1,7.3h-4.3V102z M298.1,113.9c2.5,0,4.1-1.2,4.1-4.7
			s-1.7-4.6-4.1-4.6h-0.6v9.3H298.1z"/>
		<path class="st6" d="M308.4,102h9.1v2.8h-5.8v2.9h4.9v2.8h-4.9v3.4h6v2.8h-9.3V102z"/>
		<path class="st6" d="M319.6,114.7l1.9-2.3c1,0.9,2.4,1.5,3.6,1.5c1.4,0,2-0.5,2-1.4c0-0.9-0.8-1.2-2.1-1.7l-1.9-0.8
			c-1.5-0.6-2.9-1.9-2.9-4c0-2.4,2.1-4.3,5.2-4.3c1.7,0,3.4,0.7,4.7,1.9l-1.7,2.1c-1-0.7-1.9-1.1-3-1.1c-1.1,0-1.9,0.5-1.9,1.3
			c0,0.9,0.9,1.2,2.2,1.7l1.9,0.8c1.8,0.7,2.9,1.9,2.9,4c0,2.4-2,4.5-5.5,4.5C323.1,116.8,321.1,116.1,319.6,114.7z"/>
		<path class="st6" d="M333,102h3.3v14.5H333V102z"/>
		<path class="st6" d="M339,109.4c0-4.8,3.2-7.6,7.1-7.6c2.1,0,3.6,0.9,4.6,1.9l-1.7,2.1c-0.7-0.7-1.5-1.2-2.7-1.2
			c-2.2,0-3.8,1.8-3.8,4.7c0,3,1.4,4.7,4.1,4.7c0.6,0,1.2-0.2,1.5-0.4v-2.5h-2.4v-2.7h5.3v6.7c-1,1-2.8,1.8-4.8,1.8
			C342.1,116.8,339,114.3,339,109.4z"/>
		<path class="st6" d="M353.9,102h3.4l3.8,7.2l1.4,3.2h0.1c-0.2-1.5-0.4-3.6-0.4-5.3V102h3.1v14.5h-3.4l-3.8-7.3l-1.4-3.2h-0.1
			c0.2,1.6,0.4,3.6,0.4,5.3v5.2h-3.1V102z"/>
	</g>
	<rect x="221.9" y="153.2" class="st13" width="97.4" height="32.8"/>
	<rect x="327.7" y="153.2" class="st13" width="97.4" height="32.8"/>
	<rect x="335.4" y="190.2" class="st13" width="82.1" height="4.2"/>
	<rect x="346.5" y="197.2" class="st13" width="59.9" height="4.2"/>
	<rect x="333.3" y="204.2" class="st13" width="86.3" height="4.2"/>
	<rect x="338.2" y="211.1" class="st13" width="76.6" height="4.2"/>
	<rect x="329.8" y="218.1" class="st13" width="93.3" height="4.2"/>
	<rect x="229.6" y="190.2" class="st13" width="82.1" height="4.2"/>
	<rect x="240.7" y="197.2" class="st13" width="59.9" height="4.2"/>
	<rect x="227.5" y="204.2" class="st13" width="86.3" height="4.2"/>
	<rect x="232.4" y="211.1" class="st13" width="76.6" height="4.2"/>
	<rect x="224" y="218.1" class="st13" width="93.3" height="4.2"/>
	<rect x="116.1" y="153.2" class="st13" width="97.4" height="32.8"/>
	<rect x="123.8" y="190.2" class="st13" width="82.1" height="4.2"/>
	<rect x="134.9" y="197.2" class="st13" width="59.9" height="4.2"/>
	<rect x="121.7" y="204.2" class="st13" width="86.3" height="4.2"/>
	<rect x="126.6" y="211.1" class="st13" width="76.6" height="4.2"/>
	<rect x="118.2" y="218.1" class="st13" width="93.3" height="4.2"/>
	<g>
		<path d="M118.2,67.6h1.5l-0.9,4.7h2.1l-0.2,1.2H117L118.2,67.6z"/>
		<path d="M121.3,71.1c0-2.2,1.5-3.6,3-3.6c1.4,0,2.3,0.9,2.3,2.5c0,2.2-1.5,3.6-3,3.6C122.2,73.6,121.3,72.7,121.3,71.1z
			 M125.1,70.1c0-0.9-0.3-1.3-0.9-1.3c-0.7,0-1.5,0.9-1.5,2.3c0,0.9,0.3,1.3,0.9,1.3C124.3,72.4,125.1,71.5,125.1,70.1z"/>
		<path d="M127.4,71.1c0-2.1,1.4-3.6,3.3-3.6c0.8,0,1.4,0.3,1.7,1l-1,0.8c-0.2-0.3-0.5-0.5-0.8-0.5c-0.9,0-1.7,1-1.7,2.3
			c0,0.9,0.3,1.4,1.2,1.4c0.2,0,0.4-0.1,0.5-0.1l0.2-1h-0.9l0.2-1.2h2.1l-0.6,2.9c-0.5,0.3-1.1,0.6-1.9,0.6
			C128.3,73.6,127.4,72.7,127.4,71.1z"/>
		<path d="M133,71.1c0-2.2,1.5-3.6,3-3.6c1.4,0,2.3,0.9,2.3,2.5c0,2.2-1.5,3.6-3,3.6C133.9,73.6,133,72.7,133,71.1z M136.8,70.1
			c0-0.9-0.3-1.3-0.9-1.3c-0.7,0-1.5,0.9-1.5,2.3c0,0.9,0.3,1.3,0.9,1.3C136,72.4,136.8,71.5,136.8,70.1z"/>
	</g>
	<g>
		<path d="M340.3,68.3h1.1l-0.3,1.7h1.4l0.3-1.7h1.1l-0.9,4.5h-1.1l0.4-1.9h-1.4l-0.4,1.9h-1.1L340.3,68.3z"/>
		<path d="M344.3,71c0-1.7,1.1-2.8,2.3-2.8c1,0,1.8,0.7,1.8,1.9c0,1.7-1.1,2.8-2.3,2.8C345,72.9,344.3,72.2,344.3,71z M347.2,70.2
			c0-0.7-0.3-1-0.7-1c-0.5,0-1.1,0.7-1.1,1.7c0,0.7,0.3,1,0.7,1C346.6,71.9,347.2,71.2,347.2,70.2z"/>
		<path d="M349.6,68.3h1.2l0.3,2l0.1,0.8h0l0.4-0.8l1.1-2h1.2l-0.9,4.5h-1l0.3-1.5c0.1-0.5,0.3-1.1,0.4-1.6h0l-0.6,1.1l-1,1.6h-0.4
			l-0.3-1.6l-0.1-1.1h0c0,0.5-0.1,1.1-0.2,1.6l-0.3,1.5h-1L349.6,68.3z"/>
		<path d="M354.9,68.3h2.8l-0.2,0.9h-1.7l-0.2,0.8h1.4l-0.2,0.9h-1.4l-0.2,0.9h1.7l-0.2,0.9H354L354.9,68.3z"/>
	</g>
	<g>
		<path d="M362.7,71c0-1.7,1.1-2.8,2.3-2.8c1,0,1.8,0.7,1.8,1.9c0,1.7-1.1,2.8-2.3,2.8C363.4,72.9,362.7,72.2,362.7,71z M365.6,70.2
			c0-0.7-0.3-1-0.7-1c-0.5,0-1.1,0.7-1.1,1.7c0,0.7,0.3,1,0.7,1C365,71.9,365.6,71.2,365.6,70.2z"/>
		<path d="M367.3,68.3h1.2l0.1,2.1c0,0.5,0,1,0,1.4h0c0.2-0.5,0.4-1,0.6-1.4l0.9-2.1h1.2l-2.3,4.5h-1.4L367.3,68.3z"/>
		<path d="M371.9,68.3h2.8l-0.2,0.9h-1.7l-0.2,0.8h1.4l-0.2,0.9h-1.4l-0.2,0.9h1.7l-0.2,0.9H371L371.9,68.3z"/>
		<path d="M375.6,68.3h1.5c0.9,0,1.6,0.3,1.6,1.2c0,1.3-1,1.8-2.1,1.8h-0.5l-0.3,1.6h-1.1L375.6,68.3z M376.7,70.4
			c0.6,0,0.9-0.3,0.9-0.7c0-0.3-0.2-0.5-0.7-0.5h-0.4l-0.2,1.2H376.7z M376.5,71l0.8-0.7l1,2.6h-1.2L376.5,71z"/>
		<path d="M380.6,71c0-1.7,1.1-2.8,2.3-2.8c1,0,1.8,0.7,1.8,1.9c0,1.7-1.1,2.8-2.3,2.8C381.3,72.9,380.6,72.2,380.6,71z M383.6,70.2
			c0-0.7-0.3-1-0.7-1c-0.5,0-1.1,0.7-1.1,1.7c0,0.7,0.3,1,0.7,1C382.9,71.9,383.6,71.2,383.6,70.2z"/>
		<path d="M386,68.3h1.1l0.6,2.1l0.2,1h0c0-0.5,0.1-1.2,0.2-1.7l0.3-1.4h1.1l-0.9,4.5h-1.1l-0.6-2.1l-0.2-1h0c0,0.5-0.1,1.2-0.2,1.7
			l-0.3,1.5h-1.1L386,68.3z"/>
		<path d="M389.5,72l0.8-0.6c0.2,0.3,0.6,0.6,0.9,0.6c0.3,0,0.5-0.1,0.5-0.4c0-0.2-0.2-0.3-0.5-0.5l-0.4-0.2
			c-0.4-0.3-0.7-0.6-0.7-1.2c0-0.8,0.7-1.5,1.7-1.5c0.5,0,1,0.3,1.4,0.7l-0.7,0.7c-0.2-0.2-0.5-0.4-0.8-0.4c-0.3,0-0.5,0.2-0.5,0.4
			c0,0.2,0.2,0.3,0.6,0.5l0.4,0.3c0.4,0.3,0.6,0.6,0.6,1.1c0,0.8-0.7,1.5-1.8,1.5C390.5,72.9,389.9,72.6,389.5,72z"/>
	</g>
	<g>
		<path d="M398.2,71c0-1.6,1.1-2.8,2.4-2.8c0.5,0,1,0.3,1.2,0.7l-0.8,0.6c-0.2-0.3-0.3-0.4-0.5-0.4c-0.7,0-1.2,0.8-1.2,1.7
			c0,0.7,0.3,1,0.9,1c0.2,0,0.5-0.1,0.7-0.3l0.5,0.7c-0.3,0.2-0.8,0.6-1.4,0.6C398.9,72.9,398.2,72.2,398.2,71z"/>
		<path d="M401.5,71c0-1.7,1.1-2.8,2.3-2.8c1,0,1.8,0.7,1.8,1.9c0,1.7-1.1,2.8-2.3,2.8C402.2,72.9,401.5,72.2,401.5,71z M404.5,70.2
			c0-0.7-0.3-1-0.7-1c-0.5,0-1.1,0.7-1.1,1.7c0,0.7,0.3,1,0.7,1C403.9,71.9,404.5,71.2,404.5,70.2z"/>
		<path d="M406.9,68.3h1.1l0.6,2.1l0.2,1h0c0-0.5,0.1-1.2,0.2-1.7l0.3-1.4h1.1l-0.9,4.5h-1.1l-0.6-2.1l-0.2-1h0
			c0,0.5-0.1,1.2-0.2,1.7l-0.3,1.5H406L406.9,68.3z"/>
		<path d="M412.1,69.2h-1.1l0.2-0.9h3.4l-0.2,0.9h-1.1l-0.7,3.6h-1.1L412.1,69.2z"/>
		<path d="M415.6,68.3h1.3l0.4,4.5h-1.2l-0.1-2.4c0-0.4,0-0.8,0-1.3h0c-0.2,0.4-0.3,0.9-0.5,1.3l-1.1,2.4h-1.2L415.6,68.3z
			 M414.7,70.9h2.1l-0.2,0.8h-2.1L414.7,70.9z"/>
		<path d="M417.9,71c0-1.6,1.1-2.8,2.4-2.8c0.5,0,1,0.3,1.2,0.7l-0.8,0.6c-0.2-0.3-0.3-0.4-0.5-0.4c-0.7,0-1.2,0.8-1.2,1.7
			c0,0.7,0.3,1,0.9,1c0.2,0,0.5-0.1,0.7-0.3l0.5,0.7c-0.3,0.2-0.8,0.6-1.4,0.6C418.6,72.9,417.9,72.2,417.9,71z"/>
		<path d="M423,69.2h-1.1l0.2-0.9h3.4l-0.2,0.9h-1.1l-0.7,3.6h-1.1L423,69.2z"/>
	</g>
	<g>
		<g>
		</g>
	</g>
</g>
<g>
	<path d="M26.1,306h121c8.3,0,15-6.7,15-15V119.7c0-8.3-6.7-15-15-15h-121c-8.3,0-15,6.7-15,15V291C11.1,299.3,17.8,306,26.1,306z"
		/>
	<path class="st6" d="M26.4,298.5h120.4c4.4,0,8-3.6,8-8v-170c0-4.4-3.6-8-8-8H26.4c-4.4,0-8,3.6-8,8v170
		C18.4,294.9,22,298.5,26.4,298.5z"/>
	<rect x="18.4" y="123.6" class="st12" width="136.4" height="28.6"/>
	<g id="Responsive_design_1_">
		<path class="st6" d="M37.5,133.9h2.5c1.5,0,2.7,0.5,2.7,2.2c0,1.6-1.2,2.3-2.7,2.3h-0.9v2.6h-1.6V133.9z M40,137.1
			c0.8,0,1.3-0.4,1.3-1.1c0-0.7-0.5-0.9-1.3-0.9h-0.8v2H40z M39.8,138l1.1-1l2.3,4h-1.8L39.8,138z"/>
		<path class="st6" d="M44.2,133.9h4.4v1.3h-2.8v1.4h2.4v1.3h-2.4v1.6h2.9v1.3h-4.5V133.9z"/>
		<path class="st6" d="M49.7,140.1l0.9-1.1c0.5,0.4,1.2,0.7,1.7,0.7c0.7,0,1-0.3,1-0.7c0-0.4-0.4-0.6-1-0.8l-0.9-0.4
			c-0.7-0.3-1.4-0.9-1.4-1.9c0-1.2,1-2.1,2.5-2.1c0.8,0,1.7,0.3,2.3,0.9l-0.8,1c-0.5-0.4-0.9-0.6-1.5-0.6c-0.6,0-0.9,0.2-0.9,0.6
			c0,0.4,0.5,0.6,1.1,0.8l0.9,0.4c0.9,0.4,1.4,0.9,1.4,1.9c0,1.2-1,2.2-2.7,2.2C51.4,141.1,50.4,140.8,49.7,140.1z"/>
		<path class="st6" d="M56.2,133.9h2.4c1.6,0,2.8,0.6,2.8,2.3c0,1.7-1.3,2.4-2.8,2.4h-0.9v2.4h-1.6V133.9z M58.5,137.3
			c0.9,0,1.3-0.4,1.3-1.1c0-0.7-0.5-1-1.3-1h-0.7v2.1H58.5z"/>
		<path class="st6" d="M62.3,137.4c0-2.3,1.3-3.7,3.2-3.7c1.9,0,3.2,1.3,3.2,3.7c0,2.3-1.3,3.7-3.2,3.7
			C63.6,141.1,62.3,139.7,62.3,137.4z M67.1,137.4c0-1.4-0.6-2.3-1.6-2.3s-1.6,0.8-1.6,2.3c0,1.4,0.6,2.3,1.6,2.3
			S67.1,138.8,67.1,137.4z"/>
		<path class="st6" d="M70.1,133.9h1.6l1.8,3.5l0.7,1.6h0c-0.1-0.8-0.2-1.7-0.2-2.6v-2.5h1.5v7.1H74l-1.8-3.5l-0.7-1.6h0
			c0.1,0.8,0.2,1.7,0.2,2.6v2.5h-1.5V133.9z"/>
		<path class="st6" d="M76.8,140.1l0.9-1.1c0.5,0.4,1.2,0.7,1.7,0.7c0.7,0,1-0.3,1-0.7c0-0.4-0.4-0.6-1-0.8l-0.9-0.4
			c-0.7-0.3-1.4-0.9-1.4-1.9c0-1.2,1-2.1,2.5-2.1c0.8,0,1.7,0.3,2.3,0.9l-0.8,1c-0.5-0.4-0.9-0.6-1.5-0.6c-0.6,0-0.9,0.2-0.9,0.6
			c0,0.4,0.5,0.6,1.1,0.8l0.9,0.4c0.9,0.4,1.4,0.9,1.4,1.9c0,1.2-1,2.2-2.7,2.2C78.5,141.1,77.5,140.8,76.8,140.1z"/>
		<path class="st6" d="M83.3,133.9h1.6v7.1h-1.6V133.9z"/>
		<path class="st6" d="M85.7,133.9h1.7l0.9,3.3c0.2,0.8,0.4,1.5,0.6,2.3h0c0.2-0.8,0.4-1.5,0.6-2.3l0.8-3.3h1.6l-2.1,7.1h-1.9
			L85.7,133.9z"/>
		<path class="st6" d="M92.5,133.9H97v1.3h-2.8v1.4h2.4v1.3h-2.4v1.6h2.9v1.3h-4.5V133.9z"/>
		<path class="st6" d="M100.6,133.9h2c2.2,0,3.6,1.1,3.6,3.5s-1.4,3.6-3.5,3.6h-2.1V133.9z M102.6,139.7c1.2,0,2-0.6,2-2.3
			s-0.8-2.2-2-2.2h-0.3v4.5H102.6z"/>
		<path class="st6" d="M107.5,133.9h4.4v1.3h-2.8v1.4h2.4v1.3h-2.4v1.6h2.9v1.3h-4.5V133.9z"/>
		<path class="st6" d="M113,140.1l0.9-1.1c0.5,0.4,1.2,0.7,1.7,0.7c0.7,0,1-0.3,1-0.7c0-0.4-0.4-0.6-1-0.8l-0.9-0.4
			c-0.7-0.3-1.4-0.9-1.4-1.9c0-1.2,1-2.1,2.5-2.1c0.8,0,1.7,0.3,2.3,0.9l-0.8,1c-0.5-0.4-0.9-0.6-1.5-0.6c-0.6,0-0.9,0.2-0.9,0.6
			c0,0.4,0.5,0.6,1.1,0.8l0.9,0.4c0.9,0.4,1.4,0.9,1.4,1.9c0,1.2-1,2.2-2.7,2.2C114.7,141.1,113.7,140.8,113,140.1z"/>
		<path class="st6" d="M119.5,133.9h1.6v7.1h-1.6V133.9z"/>
		<path class="st6" d="M122.4,137.5c0-2.4,1.6-3.7,3.4-3.7c1,0,1.8,0.4,2.2,0.9l-0.8,1c-0.4-0.3-0.7-0.6-1.3-0.6
			c-1.1,0-1.9,0.9-1.9,2.3c0,1.5,0.7,2.3,2,2.3c0.3,0,0.6-0.1,0.7-0.2v-1.2h-1.2V137h2.6v3.3c-0.5,0.5-1.3,0.9-2.3,0.9
			C124,141.1,122.4,139.9,122.4,137.5z"/>
		<path class="st6" d="M129.7,133.9h1.6l1.8,3.5l0.7,1.6h0c-0.1-0.8-0.2-1.7-0.2-2.6v-2.5h1.5v7.1h-1.6l-1.8-3.5l-0.7-1.6h0
			c0.1,0.8,0.2,1.7,0.2,2.6v2.5h-1.5V133.9z"/>
	</g>
	<rect x="88.8" y="155.5" class="st13" width="62.7" height="21.2"/>
	<rect x="90.1" y="197.4" class="st13" width="60" height="2.7"/>
	<rect x="20.7" y="155.5" class="st13" width="62.7" height="21.2"/>
	<rect x="20.7" y="207.9" class="st13" width="62.7" height="33.6"/>
	<rect x="88.6" y="249.3" class="st13" width="62.9" height="33.6"/>
	<rect x="32.8" y="179.2" class="st13" width="38.5" height="2.7"/>
	<rect x="24.3" y="185.3" class="st13" width="55.5" height="2.7"/>
	<rect x="27.4" y="191.4" class="st13" width="49.3" height="2.7"/>
	<rect x="22.1" y="197.4" class="st13" width="60" height="2.7"/>
	<rect x="100.9" y="179.2" class="st13" width="38.5" height="2.7"/>
	<rect x="92.4" y="185.3" class="st13" width="55.5" height="2.7"/>
	<rect x="95.5" y="191.4" class="st13" width="49.3" height="2.7"/>
	<rect x="88.6" y="208" class="st13" width="38.2" height="2.7"/>
	<rect x="88.6" y="214.1" class="st13" width="49.8" height="2.7"/>
	<rect x="88.6" y="226.4" class="st13" width="55" height="2.7"/>
	<rect x="88.6" y="232.4" class="st13" width="48.2" height="2.7"/>
	<rect x="88.6" y="238.7" class="st13" width="59.2" height="2.7"/>
	<rect x="88.6" y="220.2" class="st13" width="43" height="2.7"/>
	<rect x="20.5" y="249.4" class="st13" width="38.2" height="2.7"/>
	<rect x="20.5" y="255.5" class="st13" width="49.8" height="2.7"/>
	<rect x="20.5" y="267.7" class="st13" width="55" height="2.7"/>
	<rect x="20.5" y="273.8" class="st13" width="48.2" height="2.7"/>
	<rect x="20.5" y="280.1" class="st13" width="59.2" height="2.7"/>
	<rect x="20.5" y="261.6" class="st13" width="43" height="2.7"/>
	<g>
		<path d="M21.9,115.8H23l-0.7,3.4h1.6l-0.2,0.9h-2.6L21.9,115.8z"/>
		<path d="M24.2,118.3c0-1.6,1.1-2.6,2.2-2.6c1,0,1.7,0.7,1.7,1.8c0,1.6-1.1,2.6-2.2,2.6C24.9,120.1,24.2,119.5,24.2,118.3z
			 M27,117.6c0-0.6-0.2-1-0.6-1c-0.5,0-1.1,0.7-1.1,1.6c0,0.6,0.2,1,0.6,1C26.4,119.2,27,118.6,27,117.6z"/>
		<path d="M28.6,118.3c0-1.5,1-2.6,2.4-2.6c0.6,0,1,0.2,1.2,0.7l-0.7,0.6c-0.2-0.2-0.3-0.3-0.6-0.3c-0.7,0-1.2,0.7-1.2,1.6
			c0,0.6,0.2,1,0.8,1c0.1,0,0.3,0,0.4-0.1l0.2-0.7h-0.6l0.2-0.9h1.6l-0.4,2.1c-0.3,0.2-0.8,0.4-1.4,0.4
			C29.3,120.1,28.6,119.5,28.6,118.3z"/>
		<path d="M32.7,118.3c0-1.6,1.1-2.6,2.2-2.6c1,0,1.7,0.7,1.7,1.8c0,1.6-1.1,2.6-2.2,2.6C33.4,120.1,32.7,119.5,32.7,118.3z
			 M35.5,117.6c0-0.6-0.2-1-0.6-1c-0.5,0-1.1,0.7-1.1,1.6c0,0.6,0.2,1,0.6,1C34.9,119.2,35.5,118.6,35.5,117.6z"/>
	</g>
	<g>
		<path d="M89.2,116.3h0.8l-0.3,1.2h1l0.2-1.2h0.8l-0.7,3.3h-0.8l0.3-1.3h-1l-0.3,1.3h-0.8L89.2,116.3z"/>
		<path d="M92.1,118.2c0-1.2,0.8-2,1.7-2c0.8,0,1.3,0.5,1.3,1.4c0,1.2-0.8,2-1.7,2C92.6,119.6,92.1,119.1,92.1,118.2z M94.2,117.7
			c0-0.5-0.2-0.7-0.5-0.7c-0.4,0-0.8,0.5-0.8,1.3c0,0.5,0.2,0.7,0.5,0.7C93.8,118.9,94.2,118.4,94.2,117.7z"/>
		<path d="M96,116.3h0.8l0.2,1.4l0.1,0.6h0l0.3-0.6l0.8-1.4H99l-0.7,3.3h-0.8l0.2-1.1c0.1-0.3,0.2-0.8,0.3-1.2h0l-0.4,0.8l-0.7,1.2
			h-0.3l-0.2-1.2l-0.1-0.8h0c0,0.3-0.1,0.8-0.1,1.2l-0.2,1.1h-0.7L96,116.3z"/>
		<path d="M99.8,116.3h2l-0.1,0.7h-1.2l-0.1,0.6h1l-0.1,0.7h-1l-0.1,0.7h1.2l-0.1,0.7h-2.1L99.8,116.3z"/>
	</g>
	<g>
		<path d="M105.4,118.2c0-1.2,0.8-2,1.7-2c0.8,0,1.3,0.5,1.3,1.4c0,1.2-0.8,2-1.7,2C105.9,119.6,105.4,119.1,105.4,118.2z
			 M107.6,117.7c0-0.5-0.2-0.7-0.5-0.7c-0.4,0-0.8,0.5-0.8,1.3c0,0.5,0.2,0.7,0.5,0.7C107.1,118.9,107.6,118.4,107.6,117.7z"/>
		<path d="M108.8,116.3h0.8l0.1,1.5c0,0.3,0,0.7,0,1h0c0.1-0.3,0.3-0.7,0.4-1l0.7-1.5h0.9l-1.7,3.3h-1L108.8,116.3z"/>
		<path d="M112.1,116.3h2L114,117h-1.2l-0.1,0.6h1l-0.1,0.7h-1l-0.1,0.7h1.2l-0.1,0.7h-2.1L112.1,116.3z"/>
		<path d="M114.8,116.3h1.1c0.7,0,1.2,0.2,1.2,0.9c0,0.9-0.7,1.3-1.5,1.3h-0.4l-0.2,1.1h-0.8L114.8,116.3z M115.6,117.8
			c0.4,0,0.6-0.2,0.6-0.5c0-0.2-0.2-0.4-0.5-0.4h-0.3l-0.2,0.9H115.6z M115.5,118.2l0.6-0.5l0.7,1.8h-0.8L115.5,118.2z"/>
		<path d="M118.4,118.2c0-1.2,0.8-2,1.7-2c0.8,0,1.3,0.5,1.3,1.4c0,1.2-0.8,2-1.7,2C119,119.6,118.4,119.1,118.4,118.2z
			 M120.6,117.7c0-0.5-0.2-0.7-0.5-0.7c-0.4,0-0.8,0.5-0.8,1.3c0,0.5,0.2,0.7,0.5,0.7C120.1,118.9,120.6,118.4,120.6,117.7z"/>
		<path d="M122.3,116.3h0.8l0.5,1.6l0.2,0.7h0c0-0.4,0.1-0.8,0.1-1.2l0.2-1.1h0.8l-0.7,3.3h-0.8L123,118l-0.2-0.7h0
			c0,0.4-0.1,0.8-0.1,1.2l-0.2,1.1h-0.8L122.3,116.3z"/>
		<path d="M124.9,119l0.6-0.5c0.2,0.2,0.4,0.4,0.7,0.4c0.2,0,0.4-0.1,0.4-0.3c0-0.1-0.1-0.2-0.4-0.4l-0.3-0.2
			c-0.3-0.2-0.5-0.4-0.5-0.8c0-0.6,0.5-1.1,1.2-1.1c0.4,0,0.8,0.2,1,0.5l-0.5,0.5c-0.2-0.2-0.3-0.3-0.5-0.3c-0.2,0-0.3,0.1-0.3,0.3
			c0,0.1,0.1,0.2,0.4,0.4l0.3,0.2c0.3,0.2,0.4,0.4,0.4,0.8c0,0.6-0.5,1.1-1.3,1.1C125.6,119.6,125.2,119.4,124.9,119z"/>
	</g>
	<g>
		<path d="M131.2,118.2c0-1.2,0.8-2,1.8-2c0.4,0,0.7,0.2,0.9,0.5l-0.5,0.4c-0.1-0.2-0.2-0.3-0.4-0.3c-0.5,0-0.9,0.6-0.9,1.3
			c0,0.5,0.2,0.7,0.6,0.7c0.2,0,0.4-0.1,0.5-0.2l0.3,0.5c-0.2,0.2-0.5,0.4-1,0.4C131.7,119.6,131.2,119.1,131.2,118.2z"/>
		<path d="M133.6,118.2c0-1.2,0.8-2,1.7-2c0.8,0,1.3,0.5,1.3,1.4c0,1.2-0.8,2-1.7,2C134.1,119.6,133.6,119.1,133.6,118.2z
			 M135.8,117.7c0-0.5-0.2-0.7-0.5-0.7c-0.4,0-0.8,0.5-0.8,1.3c0,0.5,0.2,0.7,0.5,0.7C135.3,118.9,135.8,118.4,135.8,117.7z"/>
		<path d="M137.5,116.3h0.8l0.5,1.6l0.2,0.7h0c0-0.4,0.1-0.8,0.1-1.2l0.2-1.1h0.8l-0.7,3.3h-0.8l-0.5-1.6l-0.2-0.7h0
			c0,0.4-0.1,0.8-0.1,1.2l-0.2,1.1h-0.8L137.5,116.3z"/>
		<path d="M141.3,117h-0.8l0.1-0.7h2.5l-0.1,0.7h-0.8l-0.5,2.6h-0.8L141.3,117z"/>
		<path d="M143.8,116.3h1l0.3,3.3h-0.8l-0.1-1.7c0-0.3,0-0.6,0-0.9h0c-0.1,0.3-0.2,0.6-0.4,0.9l-0.8,1.7h-0.9L143.8,116.3z
			 M143.1,118.2h1.5l-0.1,0.6H143L143.1,118.2z"/>
		<path d="M145.4,118.2c0-1.2,0.8-2,1.8-2c0.4,0,0.7,0.2,0.9,0.5l-0.5,0.4c-0.1-0.2-0.2-0.3-0.4-0.3c-0.5,0-0.9,0.6-0.9,1.3
			c0,0.5,0.2,0.7,0.6,0.7c0.2,0,0.4-0.1,0.5-0.2l0.3,0.5c-0.2,0.2-0.5,0.4-1,0.4C146,119.6,145.4,119.1,145.4,118.2z"/>
		<path d="M149.2,117h-0.8l0.1-0.7h2.5l-0.1,0.7H150l-0.5,2.6h-0.8L149.2,117z"/>
	</g>
	<g>
		<g>
		</g>
	</g>
</g>
<g>
	<path d="M470.3,306H426c-7.7,0-14-6.3-14-14V176.3c0-7.7,6.3-14,14-14h44.3c7.7,0,14,6.3,14,14V292C484.3,299.7,478,306,470.3,306z
		"/>
	<path class="st6" d="M472.9,301.4h-49.9c-3.9,0-7-3.1-7-7V173.8c0-3.9,3.1-7,7-7h49.9c3.9,0,7,3.1,7,7v120.6
		C479.9,298.3,476.8,301.4,472.9,301.4z"/>
	<path d="M464.1,172.1h-32.2c-2,0-3.7-1.9-3.7-4.3v-3.2h39.6v3.2C467.8,170.1,466.1,172.1,464.1,172.1z"/>
	<path d="M467.8,168c0,0,0.1-1.2,1.3-1.2c1.1,0,0.2-1.8,0.2-1.8l-3.7,0.9l-0.5,2.3L467.8,168z"/>
	<path d="M428.2,168c0,0-0.1-1.2-1.3-1.2c-1.1,0-0.2-1.8-0.2-1.8l3.7,0.9l0.5,2.3L428.2,168z"/>
	<rect x="416.1" y="182.2" class="st12" width="63.9" height="26"/>
	<rect x="419.3" y="211.1" class="st13" width="56.8" height="19.2"/>
	<rect x="419.3" y="255.9" class="st13" width="56.8" height="30.4"/>
	<rect x="430.3" y="232.6" class="st13" width="34.9" height="2.5"/>
	<rect x="422.6" y="238.1" class="st13" width="50.4" height="2.5"/>
	<rect x="425.4" y="243.6" class="st13" width="44.7" height="2.5"/>
	<rect x="420.5" y="249.1" class="st13" width="54.4" height="2.5"/>
	<rect x="419.1" y="289.8" class="st13" width="34.7" height="2.5"/>
	<rect x="419.1" y="295.3" class="st13" width="45.1" height="2.5"/>
	<g>
		<path d="M420,175.5h1l-0.6,3.1h1.4l-0.2,0.8h-2.4L420,175.5z"/>
		<path d="M422,177.8c0-1.4,1-2.4,2-2.4c0.9,0,1.5,0.6,1.5,1.6c0,1.4-1,2.4-2,2.4C422.6,179.5,422,178.9,422,177.8z M424.5,177.2
			c0-0.6-0.2-0.9-0.6-0.9c-0.4,0-1,0.6-1,1.5c0,0.6,0.2,0.9,0.6,0.9C424,178.7,424.5,178.1,424.5,177.2z"/>
		<path d="M426,177.8c0-1.4,0.9-2.4,2.1-2.4c0.5,0,0.9,0.2,1.1,0.6l-0.6,0.5c-0.1-0.2-0.3-0.3-0.5-0.3c-0.6,0-1.1,0.7-1.1,1.5
			c0,0.6,0.2,0.9,0.8,0.9c0.1,0,0.2,0,0.3-0.1l0.1-0.6h-0.6l0.1-0.8h1.4l-0.4,1.9c-0.3,0.2-0.8,0.4-1.3,0.4
			C426.6,179.5,426,178.9,426,177.8z"/>
		<path d="M429.7,177.8c0-1.4,1-2.4,2-2.4c0.9,0,1.5,0.6,1.5,1.6c0,1.4-1,2.4-2,2.4C430.3,179.5,429.7,178.9,429.7,177.8z
			 M432.2,177.2c0-0.6-0.2-0.9-0.6-0.9c-0.4,0-1,0.6-1,1.5c0,0.6,0.2,0.9,0.6,0.9C431.7,178.7,432.2,178.1,432.2,177.2z"/>
	</g>
	<g>
		<g>
		</g>
	</g>
	<g>
		<path class="st6" d="M426.2,188.8h1.9c1.1,0,2,0.4,2,1.6c0,1.2-0.9,1.7-2,1.7h-0.7v1.9h-1.2V188.8z M428,191.2
			c0.6,0,0.9-0.3,0.9-0.8c0-0.5-0.3-0.7-0.9-0.7h-0.6v1.4H428z M427.9,191.8l0.8-0.7l1.6,2.9H429L427.9,191.8z"/>
		<path class="st6" d="M431.1,188.8h3.2v1h-2.1v1h1.8v1h-1.8v1.2h2.1v1h-3.3V188.8z"/>
		<path class="st6" d="M435.4,188.8h1.8c1.1,0,2,0.4,2,1.7c0,1.2-0.9,1.7-2,1.7h-0.6v1.7h-1.2V188.8z M437.1,191.3
			c0.6,0,0.9-0.3,0.9-0.8c0-0.5-0.3-0.7-1-0.7h-0.5v1.6H437.1z"/>
		<path class="st6" d="M439.7,193.3l0.7-0.8c0.4,0.3,0.8,0.5,1.3,0.5c0.5,0,0.7-0.2,0.7-0.5c0-0.3-0.3-0.4-0.7-0.6l-0.7-0.3
			c-0.5-0.2-1-0.7-1-1.4c0-0.9,0.8-1.5,1.8-1.5c0.6,0,1.2,0.2,1.7,0.7l-0.6,0.7c-0.3-0.3-0.7-0.4-1.1-0.4c-0.4,0-0.7,0.2-0.7,0.5
			c0,0.3,0.3,0.4,0.8,0.6l0.7,0.3c0.6,0.3,1,0.7,1,1.4c0,0.9-0.7,1.6-1.9,1.6C441,194.1,440.2,193.8,439.7,193.3z"/>
		<path class="st6" d="M444.2,191.4c0-1.7,1-2.6,2.3-2.6c1.4,0,2.3,1,2.3,2.6c0,1.7-1,2.7-2.3,2.7
			C445.1,194.1,444.2,193.1,444.2,191.4z M447.7,191.4c0-1-0.4-1.6-1.1-1.6s-1.1,0.6-1.1,1.6c0,1,0.4,1.7,1.1,1.7
			S447.7,192.4,447.7,191.4z"/>
		<path class="st6" d="M449.8,188.8h1.2l1.3,2.6l0.5,1.1h0c-0.1-0.5-0.1-1.3-0.1-1.9v-1.8h1.1v5.2h-1.2l-1.3-2.6l-0.5-1.1h0
			c0.1,0.6,0.1,1.3,0.1,1.9v1.8h-1.1V188.8z"/>
		<path class="st6" d="M454.8,193.3l0.7-0.8c0.4,0.3,0.8,0.5,1.3,0.5c0.5,0,0.7-0.2,0.7-0.5c0-0.3-0.3-0.4-0.7-0.6l-0.7-0.3
			c-0.5-0.2-1-0.7-1-1.4c0-0.9,0.8-1.5,1.8-1.5c0.6,0,1.2,0.2,1.7,0.7l-0.6,0.7c-0.3-0.3-0.7-0.4-1.1-0.4c-0.4,0-0.7,0.2-0.7,0.5
			c0,0.3,0.3,0.4,0.8,0.6l0.7,0.3c0.6,0.3,1,0.7,1,1.4c0,0.9-0.7,1.6-1.9,1.6C456,194.1,455.3,193.8,454.8,193.3z"/>
		<path class="st6" d="M459.5,188.8h1.2v5.2h-1.2V188.8z"/>
		<path class="st6" d="M461.2,188.8h1.2l0.6,2.4c0.2,0.6,0.3,1.1,0.4,1.7h0c0.2-0.6,0.3-1.1,0.4-1.7l0.6-2.4h1.2l-1.6,5.2h-1.4
			L461.2,188.8z"/>
		<path class="st6" d="M466.2,188.8h3.2v1h-2.1v1h1.8v1h-1.8v1.2h2.1v1h-3.3V188.8z"/>
		<path class="st6" d="M435.2,197.3h1.5c1.6,0,2.6,0.8,2.6,2.6c0,1.8-1,2.6-2.5,2.6h-1.5V197.3z M436.6,201.5c0.9,0,1.5-0.4,1.5-1.7
			c0-1.2-0.6-1.6-1.5-1.6h-0.2v3.3H436.6z"/>
		<path class="st6" d="M440.2,197.3h3.2v1h-2.1v1h1.8v1h-1.8v1.2h2.1v1h-3.3V197.3z"/>
		<path class="st6" d="M444.2,201.8l0.7-0.8c0.4,0.3,0.8,0.5,1.3,0.5c0.5,0,0.7-0.2,0.7-0.5c0-0.3-0.3-0.4-0.7-0.6l-0.7-0.3
			c-0.5-0.2-1-0.7-1-1.4c0-0.9,0.8-1.5,1.8-1.5c0.6,0,1.2,0.2,1.7,0.7l-0.6,0.7c-0.3-0.3-0.7-0.4-1.1-0.4c-0.4,0-0.7,0.2-0.7,0.5
			c0,0.3,0.3,0.4,0.8,0.6l0.7,0.3c0.6,0.3,1,0.7,1,1.4c0,0.9-0.7,1.6-1.9,1.6C445.4,202.5,444.7,202.2,444.2,201.8z"/>
		<path class="st6" d="M448.9,197.3h1.2v5.2h-1.2V197.3z"/>
		<path class="st6" d="M451.1,199.9c0-1.7,1.1-2.7,2.5-2.7c0.7,0,1.3,0.3,1.6,0.7l-0.6,0.7c-0.3-0.2-0.5-0.4-1-0.4
			c-0.8,0-1.4,0.6-1.4,1.7c0,1.1,0.5,1.7,1.4,1.7c0.2,0,0.4-0.1,0.5-0.2v-0.9h-0.9v-1h1.9v2.4c-0.4,0.3-1,0.6-1.7,0.6
			C452.2,202.5,451.1,201.6,451.1,199.9z"/>
		<path class="st6" d="M456.3,197.3h1.2l1.3,2.6l0.5,1.1h0c-0.1-0.5-0.1-1.3-0.1-1.9v-1.8h1.1v5.2h-1.2l-1.3-2.6l-0.5-1.1h0
			c0.1,0.6,0.1,1.3,0.1,1.9v1.8h-1.1V197.3z"/>
	</g>
	<rect x="467.4" y="174.6" width="8.7" height="0.9"/>
	<rect x="467.4" y="176.9" width="8.7" height="0.9"/>
	<rect x="467.4" y="176.9" width="8.7" height="0.9"/>
	<rect x="467.4" y="179.1" width="8.7" height="0.9"/>
</g>
</svg>
