<svg id="Laag_1" data-name="Laag 1" xmlns="http://www.w3.org/2000/svg" xmlns:xlink="http://www.w3.org/1999/xlink" viewBox="0 0 1200 627"><defs><style>.cls-1{fill:#0090e3;}.cls-2{fill:gray;}.cls-3{fill:#666;}.cls-4{isolation:isolate;}.cls-5{fill:#4d4d4d;}.cls-6{fill:url(#Naamloos_verloop_10);}.cls-7{fill:#fff;}.cls-8{fill:#b3b3b3;}.cls-9{fill:#ec6b56;}.cls-10{fill:#fcc052;}.cls-11{fill:#82d353;}.cls-12{fill:#e6e6e6;}.cls-13{fill:#3fa9f5;}.cls-14{fill:#999;}</style><linearGradient id="Naamloos_verloop_10" x1="627.19" y1="506.62" x2="627.19" y2="442.6" gradientUnits="userSpaceOnUse"><stop offset="0" stop-color="#666"/><stop offset="1" stop-color="#333"/></linearGradient></defs><title>bg-masterhead</title><rect id="background" class="cls-1" width="1200" height="627"/><polygon class="cls-2" points="693.92 539.28 560.46 539.28 542.99 588.93 711.39 588.93 693.92 539.28"/><polygon class="cls-3" points="696.42 548.43 557.96 548.43 564.2 442.6 690.18 442.6 696.42 548.43"/><path class="cls-3" d="M543,588.93H711.39a0,0,0,0,1,0,0v3.23a2,2,0,0,1-2,2H545a2,2,0,0,1-2-2v-3.23A0,0,0,0,1,543,588.93Z"/><g class="cls-4"><polygon class="cls-5" points="564.2 442.6 690.18 442.6 693.24 506.62 561.14 506.62 564.2 442.6"/><polygon class="cls-6" points="564.2 442.6 690.18 442.6 693.24 506.62 561.14 506.62 564.2 442.6"/></g><rect x="258.13" y="32.84" width="736.72" height="449.05" rx="15" ry="15"/><rect class="cls-7" x="290.4" y="67.93" width="673.57" height="378.89"/><rect class="cls-8" x="293.6" y="72.14" width="666.56" height="371.87" rx="2" ry="2"/><rect class="cls-7" x="300.91" y="105.81" width="652.56" height="332.58"/><ellipse class="cls-9" cx="939.46" cy="87.57" rx="5.6" ry="5.61"/><ellipse class="cls-10" cx="924.06" cy="87.57" rx="5.6" ry="5.61"/><ellipse class="cls-11" cx="908.66" cy="87.57" rx="5.6" ry="5.61"/><rect class="cls-12" x="356.92" y="77.75" width="534.93" height="19.65" rx="2" ry="2"/><rect class="cls-13" x="300.91" y="135.28" width="652.56" height="136.12"/><g id="Responsive_design" data-name="Responsive design"><path class="cls-7" d="M415.3,183.71h10.52c6.19,0,11.27,2.15,11.27,9.11,0,6.73-5.08,9.62-11.27,9.62H421.9V213h-6.6Zm10,13.48c3.47,0,5.34-1.49,5.34-4.37s-1.87-3.86-5.34-3.86H421.9v8.23Zm-.67,3.51,4.57-4.24L438.5,213h-7.39Z" transform="translate(-1.25 0.08)"/><path class="cls-7" d="M442.77,183.71h18.3v5.55H449.38v5.87h9.95v5.55h-9.95v6.74h12.14V213H442.77Z" transform="translate(-1.25 0.08)"/><path class="cls-7" d="M465.44,209.28l3.79-4.54a11.63,11.63,0,0,0,7.17,3.06c2.76,0,4.11-1.09,4.11-2.83s-1.66-2.43-4.21-3.48l-3.8-1.62c-3-1.24-5.89-3.73-5.89-8,0-4.85,4.32-8.72,10.4-8.72A13.5,13.5,0,0,1,486.4,187l-3.33,4.17a9.47,9.47,0,0,0-6.06-2.29c-2.28,0-3.73,1-3.73,2.63s1.91,2.44,4.46,3.46l3.72,1.51c3.57,1.44,5.8,3.82,5.8,8,0,4.86-4.05,9.07-11,9.07A16,16,0,0,1,465.44,209.28Z" transform="translate(-1.25 0.08)"/><path class="cls-7" d="M492.22,183.71h10c6.43,0,11.61,2.3,11.61,9.41,0,6.88-5.24,9.92-11.43,9.92h-3.61V213h-6.6ZM502,197.79c3.63,0,5.35-1.62,5.35-4.67s-2-4.16-5.53-4.16h-3v8.83Z" transform="translate(-1.25 0.08)"/><path class="cls-7" d="M517.56,198.21c0-9.56,5.39-15,13.27-15s13.26,5.52,13.26,15-5.39,15.3-13.26,15.3S517.56,207.77,517.56,198.21Zm19.76,0c0-5.86-2.51-9.33-6.49-9.33s-6.5,3.47-6.5,9.33,2.51,9.59,6.5,9.59S537.32,204.08,537.32,198.21Z" transform="translate(-1.25 0.08)"/><path class="cls-7" d="M549.61,183.71h6.76L564,198.26l2.89,6.43h.18c-.31-3.09-.84-7.19-.84-10.64V183.71h6.29V213h-6.77l-7.62-14.59L555.23,192h-.18c.31,3.23.85,7.15.85,10.6V213h-6.29Z" transform="translate(-1.25 0.08)"/><path class="cls-7" d="M577.51,209.28l3.8-4.54a11.61,11.61,0,0,0,7.17,3.06c2.76,0,4.1-1.09,4.1-2.83s-1.66-2.43-4.21-3.48l-3.79-1.62c-3-1.24-5.9-3.73-5.9-8,0-4.85,4.33-8.72,10.41-8.72a13.5,13.5,0,0,1,9.39,3.83l-3.33,4.17a9.49,9.49,0,0,0-6.06-2.29c-2.28,0-3.73,1-3.73,2.63s1.91,2.44,4.46,3.46l3.72,1.51c3.57,1.44,5.79,3.82,5.79,8,0,4.86-4,9.07-11,9.07A16.07,16.07,0,0,1,577.51,209.28Z" transform="translate(-1.25 0.08)"/><path class="cls-7" d="M604.3,183.71h6.6V213h-6.6Z" transform="translate(-1.25 0.08)"/><path class="cls-7" d="M614,183.71h7l3.52,13.63c.87,3.21,1.46,6.16,2.34,9.39h.18c.89-3.23,1.51-6.18,2.34-9.39l3.45-13.63h6.75L630.78,213h-7.93Z" transform="translate(-1.25 0.08)"/><path class="cls-7" d="M642.36,183.71h18.29v5.55H649v5.87h10v5.55H649v6.74H661.1V213H642.36Z" transform="translate(-1.25 0.08)"/><path class="cls-7" d="M675.87,183.71h8.26c8.92,0,14.66,4.44,14.66,14.5S693.05,213,684.5,213h-8.63Zm7.86,23.94c4.95,0,8.3-2.44,8.3-9.44s-3.35-9.18-8.3-9.18h-1.26v18.62Z" transform="translate(-1.25 0.08)"/><path class="cls-7" d="M704.31,183.71H722.6v5.55H710.91v5.87h10v5.55h-10v6.74h12.14V213H704.31Z" transform="translate(-1.25 0.08)"/><path class="cls-7" d="M727,209.28l3.79-4.54a11.64,11.64,0,0,0,7.18,3.06c2.75,0,4.1-1.09,4.1-2.83s-1.66-2.43-4.21-3.48l-3.8-1.62c-3-1.24-5.89-3.73-5.89-8,0-4.85,4.32-8.72,10.4-8.72a13.52,13.52,0,0,1,9.4,3.83l-3.34,4.17a9.47,9.47,0,0,0-6.06-2.29c-2.27,0-3.72,1-3.72,2.63s1.91,2.44,4.46,3.46l3.72,1.51c3.56,1.44,5.79,3.82,5.79,8,0,4.86-4,9.07-11,9.07A16.07,16.07,0,0,1,727,209.28Z" transform="translate(-1.25 0.08)"/><path class="cls-7" d="M753.75,183.71h6.61V213h-6.61Z" transform="translate(-1.25 0.08)"/><path class="cls-7" d="M765.87,198.51c0-9.71,6.44-15.34,14.23-15.34a12.65,12.65,0,0,1,9.22,3.8l-3.48,4.24a7.55,7.55,0,0,0-5.52-2.33c-4.49,0-7.68,3.54-7.68,9.41s2.71,9.51,8.21,9.51a5.28,5.28,0,0,0,3.09-.87v-5.06h-4.83v-5.4h10.7V210a14.11,14.11,0,0,1-9.64,3.54C772.13,213.51,765.87,208.37,765.87,198.51Z" transform="translate(-1.25 0.08)"/><path class="cls-7" d="M795.83,183.71h6.77l7.62,14.55,2.89,6.43h.18c-.31-3.09-.85-7.19-.85-10.64V183.71h6.29V213H812l-7.62-14.59L801.46,192h-.18c.31,3.23.84,7.15.84,10.6V213h-6.29Z" transform="translate(-1.25 0.08)"/></g><rect class="cls-14" x="529.16" y="286.84" width="196.05" height="65.95"/><rect class="cls-14" x="742.02" y="286.84" width="196.05" height="65.95"/><rect class="cls-14" x="757.42" y="361.21" width="165.24" height="8.42"/><rect class="cls-14" x="779.82" y="375.24" width="120.43" height="8.42"/><rect class="cls-14" x="753.22" y="389.28" width="173.64" height="8.42"/><rect class="cls-14" x="763.02" y="403.31" width="154.04" height="8.42"/><rect class="cls-14" x="746.22" y="417.34" width="187.64" height="8.42"/><rect class="cls-14" x="544.57" y="361.21" width="165.24" height="8.42"/><rect class="cls-14" x="566.97" y="375.24" width="120.43" height="8.42"/><rect class="cls-14" x="540.37" y="389.28" width="173.64" height="8.42"/><rect class="cls-14" x="550.17" y="403.31" width="154.04" height="8.42"/><rect class="cls-14" x="533.37" y="417.34" width="187.64" height="8.42"/><rect class="cls-14" x="316.31" y="286.84" width="196.05" height="65.95"/><rect class="cls-14" x="331.72" y="361.21" width="165.24" height="8.42"/><rect class="cls-14" x="354.12" y="375.24" width="120.43" height="8.42"/><rect class="cls-14" x="327.52" y="389.28" width="173.64" height="8.42"/><rect class="cls-14" x="337.32" y="403.31" width="154.04" height="8.42"/><rect class="cls-14" x="320.52" y="417.34" width="187.64" height="8.42"/><path d="M321.63,114.46h2.92l-1.9,9.41H327l-.47,2.45h-7.22Z" transform="translate(-1.25 0.08)"/><path d="M327.9,121.5c0-4.41,3-7.26,6.13-7.26,2.74,0,4.6,1.82,4.6,5,0,4.41-3,7.26-6.13,7.26C329.76,126.54,327.9,124.71,327.9,121.5Zm7.74-2c0-1.72-.66-2.7-1.75-2.7-1.35,0-3,1.82-3,4.56,0,1.71.65,2.7,1.75,2.7C334,124,335.64,122.19,335.64,119.46Z" transform="translate(-1.25 0.08)"/><path d="M340.12,121.5c0-4.23,2.89-7.26,6.57-7.26a3.7,3.7,0,0,1,3.43,1.93l-2,1.54a1.79,1.79,0,0,0-1.6-.95c-1.9,0-3.43,2-3.43,4.56,0,1.71.65,2.74,2.33,2.74a1.88,1.88,0,0,0,1-.3l.44-2h-1.75l.44-2.37h4.3l-1.13,5.88a6.5,6.5,0,0,1-3.83,1.24C342,126.54,340.12,124.71,340.12,121.5Z" transform="translate(-1.25 0.08)"/><path d="M351.44,121.5c0-4.41,3-7.26,6.12-7.26,2.74,0,4.6,1.82,4.6,5,0,4.41-3,7.26-6.13,7.26C353.3,126.54,351.44,124.71,351.44,121.5Zm7.73-2c0-1.72-.66-2.7-1.75-2.7-1.35,0-3,1.82-3,4.56,0,1.71.65,2.7,1.75,2.7C357.53,124,359.17,122.19,359.17,119.46Z" transform="translate(-1.25 0.08)"/><path d="M768.62,115.8h2.24l-.7,3.42h2.72l.67-3.42h2.25L774,124.91h-2.24l.76-3.73h-2.72l-.73,3.73h-2.25Z" transform="translate(-1.25 0.08)"/><path d="M776.53,121.21c0-3.39,2.3-5.58,4.71-5.58,2.11,0,3.54,1.4,3.54,3.87,0,3.4-2.3,5.58-4.72,5.58C778,125.08,776.53,123.68,776.53,121.21Zm6-1.57c0-1.32-.51-2.07-1.35-2.07-1,0-2.3,1.4-2.3,3.5,0,1.32.51,2.08,1.35,2.08C781.21,123.15,782.48,121.75,782.48,119.64Z" transform="translate(-1.25 0.08)"/><path d="M787.34,115.8h2.32l.59,3.93.21,1.54h.06l.8-1.54,2.13-3.93h2.33L794,124.91h-2.1l.65-3a31.53,31.53,0,0,1,.89-3.2h0l-1.13,2.13-1.94,3.31h-.84l-.59-3.31-.28-2.13h0a31.93,31.93,0,0,1-.35,3.2l-.62,3h-2Z" transform="translate(-1.25 0.08)"/><path d="M797.92,115.8h5.55l-.37,1.88h-3.33l-.31,1.6h2.83l-.36,1.88h-2.84L798.7,123h3.45l-.36,1.87h-5.7Z" transform="translate(-1.25 0.08)"/><path d="M813.52,121.21c0-3.39,2.3-5.58,4.71-5.58,2.11,0,3.54,1.4,3.54,3.87,0,3.4-2.3,5.58-4.71,5.58C815,125.08,813.52,123.68,813.52,121.21Zm6-1.57c0-1.32-.51-2.07-1.35-2.07-1,0-2.3,1.4-2.3,3.5,0,1.32.51,2.08,1.35,2.08C818.21,123.15,819.47,121.75,819.47,119.64Z" transform="translate(-1.25 0.08)"/><path d="M823,115.8h2.36l.17,4.26c0,1,0,1.92,0,2.89h.06l1.2-2.89,1.85-4.26h2.47l-4.68,9.11h-2.72Z" transform="translate(-1.25 0.08)"/><path d="M832.13,115.8h5.55l-.36,1.88H834l-.31,1.6h2.83l-.36,1.88h-2.83l-.4,1.88h3.45l-.36,1.87h-5.7Z" transform="translate(-1.25 0.08)"/><path d="M839.65,115.8h3c1.82,0,3.23.64,3.23,2.41,0,2.53-2,3.56-4.21,3.56h-1l-.62,3.14h-2.24Zm2.22,4.21c1.2,0,1.79-.59,1.79-1.46,0-.68-.48-1-1.32-1h-.81l-.48,2.44Zm-.42,1.23,1.59-1.46,2,5.13h-2.36Z" transform="translate(-1.25 0.08)"/><path d="M849.64,121.21c0-3.39,2.3-5.58,4.71-5.58,2.11,0,3.54,1.4,3.54,3.87,0,3.4-2.3,5.58-4.71,5.58C851.07,125.08,849.64,123.68,849.64,121.21Zm6-1.57c0-1.32-.51-2.07-1.35-2.07-1,0-2.3,1.4-2.3,3.5,0,1.32.51,2.08,1.35,2.08C854.33,123.15,855.59,121.75,855.59,119.64Z" transform="translate(-1.25 0.08)"/><path d="M860.45,115.8h2.16l1.26,4.32.45,2h0a31.23,31.23,0,0,1,.37-3.45l.59-2.92h2.13l-1.83,9.11h-2.16l-1.26-4.31-.42-2h0a29.68,29.68,0,0,1-.4,3.42l-.59,2.94h-2.13Z" transform="translate(-1.25 0.08)"/><path d="M867.44,123.33l1.59-1.26a2.51,2.51,0,0,0,1.91,1.11c.65,0,1.07-.3,1.07-.8s-.41-.59-1-1l-.79-.49a2.52,2.52,0,0,1-1.34-2.32,3.16,3.16,0,0,1,3.35-3,3.72,3.72,0,0,1,2.83,1.42l-1.4,1.32a2.15,2.15,0,0,0-1.51-.8c-.65,0-1,.35-1,.78s.39.55,1.12,1l.84.52a2.2,2.2,0,0,1,1.24,2.17c0,1.67-1.38,3-3.57,3A4,4,0,0,1,867.44,123.33Z" transform="translate(-1.25 0.08)"/><path d="M885.09,121.21c0-3.25,2.21-5.58,4.91-5.58a2.77,2.77,0,0,1,2.49,1.49L891,118.29a1.31,1.31,0,0,0-1.1-.72c-1.31,0-2.49,1.54-2.49,3.5,0,1.32.5,2.08,1.74,2.08a2.26,2.26,0,0,0,1.4-.65l.93,1.43a4.22,4.22,0,0,1-2.81,1.15C886.52,125.08,885.09,123.68,885.09,121.21Z" transform="translate(-1.25 0.08)"/><path d="M891.74,121.21c0-3.39,2.3-5.58,4.71-5.58,2.11,0,3.54,1.4,3.54,3.87,0,3.4-2.3,5.58-4.72,5.58C893.17,125.08,891.74,123.68,891.74,121.21Zm6-1.57c0-1.32-.51-2.07-1.35-2.07-1,0-2.3,1.4-2.3,3.5,0,1.32.51,2.08,1.35,2.08C896.42,123.15,897.69,121.75,897.69,119.64Z" transform="translate(-1.25 0.08)"/><path d="M902.55,115.8h2.16l1.26,4.32.45,2h.05a31.23,31.23,0,0,1,.37-3.45l.59-2.92h2.13l-1.83,9.11h-2.16l-1.26-4.31-.42-2h0a29.68,29.68,0,0,1-.4,3.42l-.59,2.94h-2.13Z" transform="translate(-1.25 0.08)"/><path d="M912.93,117.68h-2.3l.36-1.88h6.85l-.37,1.88h-2.3l-1.43,7.23H911.5Z" transform="translate(-1.25 0.08)"/><path d="M920.08,115.8h2.7l.87,9.11h-2.36l-.14-4.82c0-.87-.06-1.68-.06-2.61H921c-.37.9-.67,1.74-1.07,2.61l-2.19,4.82h-2.46Zm-1.9,5.36h4.23l-.39,1.68h-4.24Z" transform="translate(-1.25 0.08)"/><path d="M924.58,121.21c0-3.25,2.21-5.58,4.91-5.58a2.77,2.77,0,0,1,2.49,1.49l-1.51,1.17a1.32,1.32,0,0,0-1.1-.72c-1.32,0-2.49,1.54-2.49,3.5,0,1.32.5,2.08,1.74,2.08a2.29,2.29,0,0,0,1.4-.65l.92,1.43a4.17,4.17,0,0,1-2.8,1.15C926,125.08,924.58,123.68,924.58,121.21Z" transform="translate(-1.25 0.08)"/><path d="M935,117.68h-2.3l.36-1.88h6.85l-.37,1.88h-2.3l-1.43,7.23h-2.24Z" transform="translate(-1.25 0.08)"/><rect x="105" y="189.11" width="303.78" height="405.04" rx="15" ry="15"/><rect class="cls-7" x="119.68" y="204.76" width="274.42" height="374.2" rx="8" ry="8"/><rect class="cls-13" x="119.68" y="227.29" width="274.42" height="57.62"/><g id="Responsive_design-2" data-name="Responsive design"><path class="cls-7" d="M159.41,247.78h5.13c3,0,5.49,1.05,5.49,4.45s-2.47,4.71-5.49,4.71h-1.91v5.15h-3.22Zm4.87,6.59c1.69,0,2.6-.73,2.6-2.14s-.91-1.89-2.6-1.89h-1.65v4Zm-.33,1.72,2.22-2.08,4.55,8.08h-3.6Z" transform="translate(-1.25 0.08)"/><path class="cls-7" d="M172.8,247.78h8.92v2.71H176v2.87h4.85v2.72H176v3.3h5.92v2.71H172.8Z" transform="translate(-1.25 0.08)"/><path class="cls-7" d="M183.85,260.28l1.84-2.22a5.64,5.64,0,0,0,3.5,1.5c1.34,0,2-.53,2-1.38s-.81-1.19-2.05-1.71l-1.85-.79a4.17,4.17,0,0,1-2.88-3.9c0-2.37,2.11-4.27,5.07-4.27a6.54,6.54,0,0,1,4.58,1.88l-1.62,2a4.59,4.59,0,0,0-3-1.12c-1.11,0-1.81.46-1.81,1.28s.93,1.2,2.17,1.69l1.82.74a4,4,0,0,1,2.82,3.9c0,2.37-2,4.43-5.36,4.43A7.76,7.76,0,0,1,183.85,260.28Z" transform="translate(-1.25 0.08)"/><path class="cls-7" d="M196.9,247.78h4.88c3.14,0,5.66,1.12,5.66,4.6s-2.55,4.85-5.57,4.85h-1.76v4.86H196.9Zm4.78,6.88c1.77,0,2.61-.79,2.61-2.28s-.95-2-2.7-2h-1.48v4.32Z" transform="translate(-1.25 0.08)"/><path class="cls-7" d="M209.25,254.87c0-4.68,2.62-7.36,6.46-7.36s6.46,2.7,6.46,7.36-2.62,7.48-6.46,7.48S209.25,259.55,209.25,254.87Zm9.63,0c0-2.87-1.23-4.56-3.17-4.56s-3.17,1.69-3.17,4.56,1.23,4.69,3.17,4.69S218.88,257.74,218.88,254.87Z" transform="translate(-1.25 0.08)"/><path class="cls-7" d="M224.86,247.78h3.3l3.71,7.12,1.41,3.14h.09c-.16-1.51-.41-3.52-.41-5.21v-5.05H236v14.31h-3.3L229,255l-1.41-3.12h-.08c.15,1.57.41,3.49.41,5.18v5.08h-3.07Z" transform="translate(-1.25 0.08)"/><path class="cls-7" d="M238.46,260.28l1.85-2.22a5.62,5.62,0,0,0,3.49,1.5c1.35,0,2-.53,2-1.38s-.81-1.19-2.06-1.71l-1.85-.79a4.17,4.17,0,0,1-2.87-3.9c0-2.37,2.11-4.27,5.07-4.27a6.56,6.56,0,0,1,4.58,1.88l-1.63,2a4.55,4.55,0,0,0-3-1.12c-1.11,0-1.82.46-1.82,1.28s.94,1.2,2.18,1.69l1.81.74a4,4,0,0,1,2.82,3.9c0,2.37-2,4.43-5.36,4.43A7.78,7.78,0,0,1,238.46,260.28Z" transform="translate(-1.25 0.08)"/><path class="cls-7" d="M251.51,247.78h3.22v14.31h-3.22Z" transform="translate(-1.25 0.08)"/><path class="cls-7" d="M256.25,247.78h3.41l1.71,6.67c.43,1.56.71,3,1.14,4.59h.09c.43-1.58.74-3,1.14-4.59l1.68-6.67h3.29l-4.29,14.31h-3.87Z" transform="translate(-1.25 0.08)"/><path class="cls-7" d="M270.06,247.78H279v2.71h-5.7v2.87h4.85v2.72h-4.85v3.3h5.91v2.71h-9.13Z" transform="translate(-1.25 0.08)"/><path class="cls-7" d="M286.39,247.78h4c4.35,0,7.15,2.17,7.15,7.09s-2.8,7.22-7,7.22h-4.2Zm3.83,11.7c2.41,0,4-1.19,4-4.61s-1.63-4.49-4-4.49h-.61v9.1Z" transform="translate(-1.25 0.08)"/><path class="cls-7" d="M300.25,247.78h8.92v2.71h-5.7v2.87h4.85v2.72h-4.85v3.3h5.91v2.71h-9.13Z" transform="translate(-1.25 0.08)"/><path class="cls-7" d="M311.29,260.28l1.85-2.22a5.64,5.64,0,0,0,3.5,1.5c1.34,0,2-.53,2-1.38s-.81-1.19-2.06-1.71l-1.84-.79a4.17,4.17,0,0,1-2.88-3.9c0-2.37,2.11-4.27,5.07-4.27a6.56,6.56,0,0,1,4.58,1.88l-1.62,2a4.59,4.59,0,0,0-3-1.12c-1.11,0-1.81.46-1.81,1.28s.93,1.2,2.17,1.69l1.81.74a4,4,0,0,1,2.83,3.9c0,2.37-2,4.43-5.37,4.43A7.8,7.8,0,0,1,311.29,260.28Z" transform="translate(-1.25 0.08)"/><path class="cls-7" d="M324.34,247.78h3.22v14.31h-3.22Z" transform="translate(-1.25 0.08)"/><path class="cls-7" d="M330.25,255c0-4.75,3.14-7.51,6.93-7.51a6.18,6.18,0,0,1,4.5,1.86l-1.7,2.08a3.67,3.67,0,0,0-2.69-1.14c-2.19,0-3.74,1.73-3.74,4.6s1.32,4.65,4,4.65a2.55,2.55,0,0,0,1.51-.43v-2.47H336.7V254h5.21v6.6a6.82,6.82,0,0,1-4.69,1.73C333.3,262.35,330.25,259.84,330.25,255Z" transform="translate(-1.25 0.08)"/><path class="cls-7" d="M344.85,247.78h3.3l3.71,7.12,1.41,3.14h.09c-.16-1.51-.41-3.52-.41-5.21v-5.05H356v14.31h-3.3L349,255l-1.41-3.12h-.08c.15,1.57.41,3.49.41,5.18v5.08h-3.07Z" transform="translate(-1.25 0.08)"/></g><rect class="cls-14" x="261.28" y="291.44" width="126.15" height="42.6"/><rect class="cls-14" x="263.99" y="375.74" width="120.74" height="5.44"/><rect class="cls-14" x="124.32" y="291.44" width="126.15" height="42.6"/><rect class="cls-14" x="124.32" y="396.85" width="126.15" height="67.57"/><rect class="cls-14" x="260.95" y="480.11" width="126.48" height="67.57"/><rect class="cls-14" x="148.65" y="339.06" width="77.49" height="5.44"/><rect class="cls-14" x="131.53" y="351.29" width="111.73" height="5.44"/><rect class="cls-14" x="137.84" y="363.51" width="99.12" height="5.44"/><rect class="cls-14" x="127.02" y="375.74" width="120.74" height="5.44"/><rect class="cls-14" x="285.67" y="339.06" width="77.49" height="5.44"/><rect class="cls-14" x="268.55" y="351.29" width="111.73" height="5.44"/><rect class="cls-14" x="274.86" y="363.51" width="99.12" height="5.44"/><rect class="cls-14" x="260.95" y="397.03" width="76.94" height="5.44"/><rect class="cls-14" x="260.95" y="409.26" width="100.13" height="5.44"/><rect class="cls-14" x="260.95" y="433.92" width="110.67" height="5.44"/><rect class="cls-14" x="260.95" y="446.15" width="96.97" height="5.44"/><rect class="cls-14" x="260.95" y="458.79" width="119.1" height="5.44"/><rect class="cls-14" x="260.95" y="421.48" width="86.43" height="5.44"/><rect class="cls-14" x="123.93" y="480.3" width="76.94" height="5.44"/><rect class="cls-14" x="123.93" y="492.52" width="100.13" height="5.44"/><rect class="cls-14" x="123.93" y="517.19" width="110.67" height="5.44"/><rect class="cls-14" x="123.93" y="529.41" width="96.97" height="5.44"/><rect class="cls-14" x="123.93" y="542.06" width="119.1" height="5.44"/><rect class="cls-14" x="123.93" y="504.75" width="86.43" height="5.44"/><path d="M128,211.41h2.12l-1.38,6.82h3.12l-.34,1.77h-5.24Z" transform="translate(-1.25 0.08)"/><path d="M132.59,216.51c0-3.2,2.17-5.26,4.44-5.26,2,0,3.34,1.32,3.34,3.65,0,3.2-2.17,5.26-4.45,5.26C133.94,220.16,132.59,218.84,132.59,216.51ZM138.2,215c0-1.24-.48-2-1.27-2-1,0-2.17,1.33-2.17,3.31,0,1.24.48,2,1.27,2C137,218.34,138.2,217,138.2,215Z" transform="translate(-1.25 0.08)"/><path d="M141.45,216.51c0-3.07,2.09-5.26,4.76-5.26a2.68,2.68,0,0,1,2.49,1.4l-1.43,1.11a1.3,1.3,0,0,0-1.16-.69c-1.38,0-2.49,1.46-2.49,3.31,0,1.24.48,2,1.7,2a1.45,1.45,0,0,0,.74-.21l.31-1.43H145.1l.32-1.72h3.12l-.82,4.26a4.64,4.64,0,0,1-2.78.9C142.8,220.16,141.45,218.84,141.45,216.51Z" transform="translate(-1.25 0.08)"/><path d="M149.65,216.51c0-3.2,2.17-5.26,4.45-5.26,2,0,3.33,1.32,3.33,3.65,0,3.2-2.17,5.26-4.44,5.26C151,220.16,149.65,218.84,149.65,216.51Zm5.61-1.48c0-1.24-.48-2-1.27-2-1,0-2.17,1.33-2.17,3.31,0,1.24.48,2,1.27,2C154.07,218.34,155.26,217,155.26,215Z" transform="translate(-1.25 0.08)"/><path d="M263.45,212.38h1.63l-.51,2.48h2l.49-2.48h1.63L267.33,219h-1.62l.55-2.71h-2l-.53,2.71h-1.62Z" transform="translate(-1.25 0.08)"/><path d="M269.19,216.3c0-2.46,1.67-4,3.41-4a2.49,2.49,0,0,1,2.57,2.8c0,2.46-1.67,4.05-3.42,4.05A2.5,2.5,0,0,1,269.19,216.3Zm4.31-1.14c0-.95-.37-1.5-1-1.5s-1.66,1-1.66,2.54c0,1,.36,1.51,1,1.51S273.5,216.69,273.5,215.16Z" transform="translate(-1.25 0.08)"/><path d="M277,212.38h1.69l.43,2.84.15,1.12h0l.58-1.12,1.54-2.84h1.69L281.82,219H280.3l.46-2.2c.15-.69.43-1.65.65-2.32h0l-.82,1.55-1.4,2.4h-.61l-.43-2.4-.2-1.55h0a22.83,22.83,0,0,1-.25,2.32l-.45,2.2H275.7Z" transform="translate(-1.25 0.08)"/><path d="M284.69,212.38h4l-.27,1.36H286l-.23,1.16h2.06l-.27,1.36h-2.05l-.29,1.36h2.5L287.5,219h-4.13Z" transform="translate(-1.25 0.08)"/><path d="M296,216.3c0-2.46,1.66-4,3.41-4a2.49,2.49,0,0,1,2.57,2.8c0,2.46-1.67,4.05-3.42,4.05A2.5,2.5,0,0,1,296,216.3Zm4.31-1.14c0-.95-.37-1.5-1-1.5s-1.67,1-1.67,2.54c0,1,.37,1.51,1,1.51S300.32,216.69,300.32,215.16Z" transform="translate(-1.25 0.08)"/><path d="M302.84,212.38h1.71l.12,3.09c0,.69,0,1.39,0,2.09h0c.3-.7.59-1.39.88-2.09l1.34-3.09h1.79l-3.4,6.61h-2Z" transform="translate(-1.25 0.08)"/><path d="M309.5,212.38h4l-.26,1.36h-2.42l-.23,1.16h2.06l-.26,1.36h-2.06l-.28,1.36h2.5L312.3,219h-4.13Z" transform="translate(-1.25 0.08)"/><path d="M315,212.38h2.18c1.32,0,2.34.46,2.34,1.75,0,1.83-1.49,2.58-3.06,2.58h-.71l-.44,2.28h-1.63Zm1.61,3.05c.87,0,1.3-.43,1.3-1.06s-.35-.71-1-.71h-.59l-.34,1.77Zm-.31.89,1.16-1.06,1.45,3.73h-1.71Z" transform="translate(-1.25 0.08)"/><path d="M322.19,216.3c0-2.46,1.67-4,3.42-4a2.49,2.49,0,0,1,2.56,2.8c0,2.46-1.66,4.05-3.41,4.05A2.5,2.5,0,0,1,322.19,216.3Zm4.32-1.14c0-.95-.37-1.5-1-1.5s-1.67,1-1.67,2.54c0,1,.37,1.51,1,1.51S326.51,216.69,326.51,215.16Z" transform="translate(-1.25 0.08)"/><path d="M330,212.38h1.56l.92,3.13.32,1.48h0c.07-.71.11-1.7.27-2.5l.43-2.11h1.54L333.79,219h-1.57l-.91-3.13-.31-1.49h0a21.9,21.9,0,0,1-.28,2.48l-.43,2.14h-1.54Z" transform="translate(-1.25 0.08)"/><path d="M335.1,217.84l1.15-.92a1.83,1.83,0,0,0,1.39.81c.47,0,.77-.22.77-.58s-.29-.43-.75-.72l-.57-.35a1.85,1.85,0,0,1-1-1.69,2.29,2.29,0,0,1,2.43-2.13,2.72,2.72,0,0,1,2.06,1l-1,1a1.57,1.57,0,0,0-1.1-.58c-.47,0-.7.25-.7.57s.29.39.81.73l.61.38a1.6,1.6,0,0,1,.9,1.57,2.32,2.32,0,0,1-2.58,2.2A3,3,0,0,1,335.1,217.84Z" transform="translate(-1.25 0.08)"/><path d="M347.89,216.3a3.75,3.75,0,0,1,3.56-4,2,2,0,0,1,1.81,1.07l-1.09.86a1,1,0,0,0-.8-.53c-.95,0-1.81,1.12-1.81,2.54,0,1,.37,1.51,1.26,1.51a1.71,1.71,0,0,0,1-.47l.67,1a3.09,3.09,0,0,1-2,.83A2.51,2.51,0,0,1,347.89,216.3Z" transform="translate(-1.25 0.08)"/><path d="M352.72,216.3c0-2.46,1.67-4,3.41-4a2.49,2.49,0,0,1,2.57,2.8c0,2.46-1.67,4.05-3.42,4.05A2.5,2.5,0,0,1,352.72,216.3Zm4.31-1.14c0-.95-.37-1.5-1-1.5s-1.66,1-1.66,2.54c0,1,.36,1.51,1,1.51S357,216.69,357,215.16Z" transform="translate(-1.25 0.08)"/><path d="M360.55,212.38h1.57l.91,3.13.33,1.48h0a23.35,23.35,0,0,1,.26-2.5l.43-2.11h1.55L364.31,219h-1.56l-.92-3.13-.3-1.49h0a22,22,0,0,1-.29,2.48l-.42,2.14h-1.55Z" transform="translate(-1.25 0.08)"/><path d="M368.08,213.74h-1.67l.27-1.36h5l-.27,1.36h-1.66l-1,5.25H367Z" transform="translate(-1.25 0.08)"/><path d="M373.27,212.38h2l.63,6.61h-1.71l-.1-3.5c0-.63,0-1.22,0-1.89h0c-.27.65-.49,1.26-.77,1.89L371.6,219h-1.79Zm-1.39,3.88H375l-.29,1.22H371.6Z" transform="translate(-1.25 0.08)"/><path d="M376.52,216.3a3.75,3.75,0,0,1,3.56-4,2,2,0,0,1,1.81,1.07l-1.09.86a1,1,0,0,0-.8-.53c-.95,0-1.81,1.12-1.81,2.54,0,1,.37,1.51,1.26,1.51a1.71,1.71,0,0,0,1-.47l.67,1a3.09,3.09,0,0,1-2,.83A2.51,2.51,0,0,1,376.52,216.3Z" transform="translate(-1.25 0.08)"/><path d="M384.07,213.74H382.4l.27-1.36h5l-.26,1.36H385.7l-1,5.25H383Z" transform="translate(-1.25 0.08)"/><rect x="911.59" y="304.97" width="145.42" height="289.19" rx="14" ry="14"/><rect class="cls-7" x="919.71" y="314.15" width="128.53" height="270.83" rx="7" ry="7"/><path d="M1017.6,324.6H952.74c-4.09,0-7.41-3.86-7.41-8.61v-6.46H1025V316C1025,320.74,1021.7,324.6,1017.6,324.6Z" transform="translate(-1.25 0.08)"/><path d="M1025,316.48a2.67,2.67,0,0,1,2.54-2.41c2.25,0,.42-3.67.42-3.67l-7.35,1.83-.91,4.59Z" transform="translate(-1.25 0.08)"/><path d="M945.32,316.48s-.28-2.41-2.53-2.41-.43-3.67-.43-3.67l7.35,1.83.92,4.59Z" transform="translate(-1.25 0.08)"/><rect class="cls-13" x="919.75" y="345.08" width="128.53" height="52.24"/><rect class="cls-14" x="926.25" y="403.25" width="114.37" height="38.62"/><rect class="cls-14" x="926.25" y="493.3" width="114.37" height="61.26"/><rect class="cls-14" x="948.31" y="446.42" width="70.26" height="4.93"/><rect class="cls-14" x="932.79" y="457.51" width="101.3" height="4.93"/><rect class="cls-14" x="938.51" y="468.59" width="89.86" height="4.93"/><rect class="cls-14" x="928.7" y="479.67" width="109.47" height="4.93"/><rect class="cls-14" x="925.9" y="561.62" width="69.76" height="4.93"/><rect class="cls-14" x="925.9" y="572.7" width="90.78" height="4.93"/><path d="M928.83,331.6h1.91l-1.24,6.19h2.83l-.31,1.6h-4.75Z" transform="translate(-1.25 0.08)"/><path d="M933,336.23c0-2.9,2-4.77,4-4.77,1.8,0,3,1.19,3,3.3,0,2.91-2,4.78-4,4.78C934.17,339.54,933,338.34,933,336.23Zm5.09-1.34c0-1.13-.44-1.78-1.16-1.78-.88,0-2,1.2-2,3,0,1.13.43,1.77,1.15,1.77C937,337.88,938,336.68,938,334.89Z" transform="translate(-1.25 0.08)"/><path d="M941,336.23a4.45,4.45,0,0,1,4.32-4.77,2.44,2.44,0,0,1,2.26,1.27l-1.3,1a1.18,1.18,0,0,0-1-.62c-1.25,0-2.26,1.32-2.26,3,0,1.13.43,1.8,1.54,1.8a1.31,1.31,0,0,0,.67-.2l.29-1.29H944.3l.28-1.56h2.83l-.74,3.86a4.23,4.23,0,0,1-2.52.82A3,3,0,0,1,941,336.23Z" transform="translate(-1.25 0.08)"/><path d="M948.42,336.23c0-2.9,2-4.77,4-4.77,1.8,0,3,1.19,3,3.3,0,2.91-2,4.78-4,4.78C949.64,339.54,948.42,338.34,948.42,336.23Zm5.08-1.34c0-1.13-.43-1.78-1.15-1.78-.88,0-2,1.2-2,3,0,1.13.43,1.77,1.15,1.77C952.42,337.88,953.5,336.68,953.5,334.89Z" transform="translate(-1.25 0.08)"/><path class="cls-7" d="M941.42,358.33h3.74c2.2,0,4,.76,4,3.23s-1.8,3.4-4,3.4h-1.39v3.73h-2.35ZM945,363.1c1.23,0,1.89-.52,1.89-1.54s-.66-1.37-1.89-1.37h-1.2v2.91Zm-.24,1.25,1.62-1.5,3.31,5.84H947Z" transform="translate(-1.25 0.08)"/><path class="cls-7" d="M951.18,358.33h6.49v2h-4.15v2.09h3.53v2h-3.53v2.39h4.31v2h-6.65Z" transform="translate(-1.25 0.08)"/><path class="cls-7" d="M959.89,358.33h3.56c2.28,0,4.12.81,4.12,3.33s-1.86,3.52-4.05,3.52h-1.29v3.51h-2.34Zm3.49,5c1.29,0,1.9-.58,1.9-1.66s-.7-1.47-2-1.47h-1.08v3.13Z" transform="translate(-1.25 0.08)"/><path class="cls-7" d="M968.55,367.39l1.34-1.61a4.16,4.16,0,0,0,2.55,1.08c1,0,1.46-.38,1.46-1s-.59-.86-1.5-1.23l-1.35-.58a3,3,0,0,1-2.09-2.82c0-1.72,1.54-3.09,3.69-3.09A4.78,4.78,0,0,1,976,359.5L974.81,361a3.43,3.43,0,0,0-2.16-.81c-.8,0-1.32.34-1.32.93s.68.87,1.59,1.23l1.32.53a2.86,2.86,0,0,1,2,2.82c0,1.72-1.43,3.22-3.9,3.22A5.73,5.73,0,0,1,968.55,367.39Z" transform="translate(-1.25 0.08)"/><path class="cls-7" d="M977.56,363.47c0-3.39,1.92-5.33,4.71-5.33s4.71,1.95,4.71,5.33-1.91,5.42-4.71,5.42S977.56,366.85,977.56,363.47Zm7,0c0-2.08-.89-3.31-2.31-3.31s-2.3,1.23-2.3,3.31.89,3.39,2.3,3.39S984.58,365.55,984.58,363.47Z" transform="translate(-1.25 0.08)"/><path class="cls-7" d="M988.94,358.33h2.4l2.7,5.15,1,2.28h.06c-.11-1.1-.3-2.55-.3-3.77v-3.66h2.24v10.36h-2.41l-2.7-5.16-1-2.27h-.06c.11,1.14.3,2.53.3,3.76v3.67h-2.23Z" transform="translate(-1.25 0.08)"/><path class="cls-7" d="M998.84,367.39l1.35-1.61a4.13,4.13,0,0,0,2.55,1.08c1,0,1.45-.38,1.45-1s-.59-.86-1.49-1.23l-1.35-.58a3,3,0,0,1-2.09-2.82c0-1.72,1.53-3.09,3.69-3.09a4.8,4.8,0,0,1,3.34,1.36L1005.1,361a3.38,3.38,0,0,0-2.15-.81c-.81,0-1.32.34-1.32.93s.68.87,1.58,1.23l1.32.53a2.86,2.86,0,0,1,2.06,2.82c0,1.72-1.44,3.22-3.91,3.22A5.75,5.75,0,0,1,998.84,367.39Z" transform="translate(-1.25 0.08)"/><path class="cls-7" d="M1008.35,358.33h2.34v10.36h-2.34Z" transform="translate(-1.25 0.08)"/><path class="cls-7" d="M1011.8,358.33h2.48l1.25,4.83c.31,1.13.52,2.18.84,3.32h.06c.31-1.14.53-2.19.83-3.32l1.22-4.83h2.4l-3.13,10.36h-2.81Z" transform="translate(-1.25 0.08)"/><path class="cls-7" d="M1021.86,358.33h6.5v2h-4.15v2.09h3.53v2h-3.53v2.39h4.31v2h-6.66Z" transform="translate(-1.25 0.08)"/><path class="cls-7" d="M959.42,375.29h2.93c3.17,0,5.21,1.58,5.21,5.14s-2,5.23-5.08,5.23h-3.06Zm2.79,8.48c1.76,0,2.95-.86,2.95-3.34s-1.19-3.25-2.95-3.25h-.45v6.59Z" transform="translate(-1.25 0.08)"/><path class="cls-7" d="M969.51,375.29H976v2h-4.15v2.08h3.53v2h-3.53v2.39h4.31v2h-6.66Z" transform="translate(-1.25 0.08)"/><path class="cls-7" d="M977.56,384.35l1.34-1.6a4.16,4.16,0,0,0,2.55,1.08c1,0,1.46-.39,1.46-1s-.59-.86-1.5-1.24l-1.34-.57a3,3,0,0,1-2.1-2.83c0-1.71,1.54-3.09,3.7-3.09a4.78,4.78,0,0,1,3.33,1.36l-1.18,1.48a3.38,3.38,0,0,0-2.15-.81c-.81,0-1.33.33-1.33.93s.68.86,1.59,1.22l1.32.54a2.86,2.86,0,0,1,2,2.82c0,1.72-1.43,3.21-3.9,3.21A5.7,5.7,0,0,1,977.56,384.35Z" transform="translate(-1.25 0.08)"/><path class="cls-7" d="M987.07,375.29h2.34v10.37h-2.34Z" transform="translate(-1.25 0.08)"/><path class="cls-7" d="M991.37,380.54c0-3.44,2.28-5.44,5-5.44a4.52,4.52,0,0,1,3.27,1.35l-1.23,1.5a2.71,2.71,0,0,0-2-.82c-1.6,0-2.73,1.25-2.73,3.33s1,3.37,2.92,3.37a1.85,1.85,0,0,0,1.09-.31v-1.79h-1.71v-1.91h3.79v4.78a5,5,0,0,1-3.42,1.25C993.59,385.85,991.37,384,991.37,380.54Z" transform="translate(-1.25 0.08)"/><path class="cls-7" d="M1002,375.29h2.41l2.7,5.16,1,2.28h.06c-.11-1.1-.3-2.55-.3-3.77v-3.67h2.23v10.37h-2.4l-2.7-5.17-1-2.26h-.06c.11,1.14.3,2.53.3,3.75v3.68H1002Z" transform="translate(-1.25 0.08)"/><rect x="1023.04" y="329.76" width="17.44" height="1.84"/><rect x="1023.04" y="334.35" width="17.44" height="1.84"/><rect x="1023.04" y="334.35" width="17.44" height="1.84"/><rect x="1023.04" y="338.94" width="17.44" height="1.84"/></svg>